<?xml version="1.0" standalone="no"?>
<!DOCTYPE svg PUBLIC "-//W3C//DTD SVG 20010904//EN"
 "http://www.w3.org/TR/2001/REC-SVG-20010904/DTD/svg10.dtd">
<svg version="1.0" xmlns="http://www.w3.org/2000/svg"
 width="492.000000pt" height="703.000000pt" viewBox="0 0 492.000000 703.000000"
 preserveAspectRatio="xMidYMid meet">

<g transform="translate(0.000000,703.000000) scale(0.100000,-0.100000)"
fill="#000000" stroke="none">
<path d="M0 6754 l0 -276 450 229 c366 185 453 226 468 217 22 -14 81 -123 82
-152 0 -12 20 -63 45 -112 25 -50 43 -90 41 -90 -2 0 -39 66 -81 148 -42 81
-80 151 -84 155 -5 5 -215 -95 -467 -222 -253 -126 -456 -230 -452 -230 4 -1
209 100 457 223 l451 224 33 -62 c19 -33 78 -144 130 -246 53 -102 143 -275
201 -385 l105 -200 -37 -17 c-43 -20 -69 -23 -74 -7 -3 8 -929 -355 -1000
-392 -10 -6 -18 -16 -18 -23 0 -8 -8 -16 -17 -19 -10 -2 -25 -8 -34 -11 -16
-7 -51 49 -164 266 l-30 58 -3 -180 c-1 -99 -1 -262 0 -362 l3 -182 79 171 80
172 48 20 c27 11 55 18 63 15 8 -3 72 17 142 44 522 204 850 336 858 347 6 7
39 25 74 39 l62 25 -6 -27 c-3 -15 -48 -160 -100 -322 -90 -283 -95 -296 -133
-330 -34 -30 -77 -47 -313 -123 -688 -222 -861 -279 -856 -283 3 -3 70 16 148
41 243 79 463 150 714 230 132 43 257 86 278 96 20 11 51 39 69 62 17 23 28
34 24 25 -18 -51 -18 -54 -2 -34 9 11 16 15 16 9 0 -13 -37 -62 -65 -85 -22
-19 -100 -48 -124 -47 -9 0 8 9 38 20 57 20 121 63 121 81 0 5 -15 -3 -34 -20
-25 -22 -75 -43 -183 -77 -81 -25 -274 -87 -428 -137 -154 -50 -345 -112 -425
-137 -104 -34 -146 -52 -148 -64 -6 -32 -15 -34 583 153 336 104 536 170 570
187 40 20 83 61 102 98 22 42 73 195 73 219 0 12 7 33 15 49 7 15 37 98 65
184 37 112 50 167 47 190 -4 23 -2 33 7 33 18 0 46 -33 46 -55 0 -29 -170
-535 -202 -600 -68 -140 -116 -165 -613 -320 -503 -157 -567 -175 -632 -182
l-63 -6 0 -613 c0 -338 2 -614 4 -614 2 0 39 48 82 108 91 126 94 130 94 115
0 -7 -40 -66 -90 -132 -50 -67 -90 -128 -90 -137 0 -11 7 -6 23 13 51 61 297
392 297 398 0 4 -8 1 -18 -6 -15 -13 -16 -12 -3 4 8 9 16 15 19 12 7 -7 32 15
32 27 0 6 -8 4 -17 -3 -10 -8 6 19 35 60 29 41 52 82 52 90 0 27 88 131 111
131 11 0 184 -120 384 -267 199 -148 430 -317 513 -378 83 -60 153 -118 155
-127 3 -12 -85 -134 -265 -365 -149 -191 -277 -358 -286 -371 l-15 -22 -31 20
c-17 11 -30 25 -29 32 1 7 -68 56 -155 109 -490 300 -756 461 -769 466 -16 6
-33 -12 -33 -35 0 -8 5 -10 13 -6 8 6 8 3 -1 -9 -8 -9 -12 -21 -10 -27 5 -16
900 -550 921 -550 16 0 40 -11 94 -45 12 -7 175 -606 169 -621 -3 -8 -12 -17
-20 -20 -8 -3 -147 63 -308 146 -161 84 -367 191 -458 237 -279 144 -354 185
-378 206 -12 11 -22 16 -22 10 0 -18 34 -40 185 -118 83 -43 208 -108 280
-145 72 -37 172 -89 224 -114 51 -26 91 -50 88 -52 -5 -5 -535 261 -699 352
-43 23 -78 39 -78 33 0 -5 24 -21 53 -35 28 -15 46 -29 40 -31 -7 -3 -28 5
-47 16 -37 23 -46 25 -46 12 0 -12 76 -53 410 -224 351 -179 597 -301 640
-317 61 -23 60 -33 -5 -27 -53 5 -110 31 -490 221 -237 119 -458 232 -492 252
l-63 36 0 -651 c0 -358 2 -651 4 -651 2 0 66 69 142 153 349 383 328 363 357
352 14 -6 137 -118 274 -250 136 -132 283 -274 325 -314 l77 -74 -20 -29 c-12
-16 -27 -27 -35 -24 -7 3 -23 -9 -36 -27 -12 -18 -161 -214 -331 -435 -229
-301 -306 -409 -302 -423 9 -26 -25 -68 -53 -69 -27 0 -57 25 -260 218 l-141
133 -1 -186 0 -185 894 0 895 0 123 237 c95 184 135 249 175 292 29 30 55 52
58 49 3 -3 -12 -34 -33 -69 -22 -35 -79 -140 -127 -234 -48 -93 -101 -194
-116 -222 -19 -34 -25 -53 -17 -53 7 0 65 100 128 221 63 122 121 229 128 238
7 9 -40 -91 -106 -221 -66 -131 -117 -238 -113 -238 3 0 69 122 146 271 166
323 170 329 192 329 17 -1 17 -1 1 -11 -10 -5 -42 -56 -71 -112 -104 -196
-245 -477 -238 -477 3 0 71 127 151 282 80 155 153 286 162 292 13 8 21 7 33
-5 11 -11 154 -389 210 -556 4 -10 257 -13 1225 -13 l1220 0 0 1093 0 1093
-37 -3 c-664 -49 -757 -54 -770 -40 -16 16 -19 52 -33 402 -6 138 -12 297 -15
355 -20 413 -24 530 -19 544 10 25 38 28 202 20 l157 -8 -152 -11 c-83 -5
-154 -12 -156 -15 -3 -3 -1 -90 4 -195 4 -104 15 -388 24 -630 15 -408 22
-526 24 -415 1 25 -8 306 -20 626 -12 320 -20 588 -17 596 5 11 68 17 329 31
419 23 479 28 479 39 0 6 -61 7 -152 4 -101 -3 -138 -2 -108 4 25 5 93 9 153
9 l107 1 0 1765 0 1765 -2460 0 -2460 0 0 -276z m2710 133 c-28 -47 -61 -93
-72 -104 -17 -15 15 43 99 175 8 13 17 22 19 19 3 -2 -18 -43 -46 -90z m100
89 c0 -4 -142 -252 -288 -504 -40 -68 -72 -124 -72 -126 0 -2 26 -19 58 -38
31 -19 263 -162 516 -316 252 -155 461 -282 465 -282 10 0 403 659 399 669 -3
10 -72 60 -538 396 -151 109 -277 199 -279 201 -2 2 16 4 40 4 40 -1 58 -11
209 -121 91 -66 215 -156 275 -200 61 -43 147 -106 192 -138 50 -37 88 -58
100 -55 10 2 28 -5 41 -16 l23 -19 -227 -401 c-125 -220 -234 -405 -244 -410
-11 -6 -25 -4 -41 4 -98 53 -1076 649 -1084 661 -7 12 -1 33 25 81 19 36 43
70 52 75 9 5 38 43 63 84 26 41 49 75 52 75 3 0 -1 -10 -9 -22 -41 -65 -150
-259 -147 -262 2 -2 189 -116 414 -253 226 -138 470 -287 544 -332 73 -45 135
-80 138 -78 2 3 -239 153 -536 333 -297 181 -540 333 -540 338 -1 8 287 507
356 619 19 31 43 49 43 33z m307 -53 c288 -204 753 -544 753 -551 0 -13 -380
-637 -388 -637 -5 0 -232 137 -506 305 -380 233 -496 309 -493 321 3 10 83
152 178 318 l174 301 100 0 101 0 81 -57z m264 -20 c57 -43 196 -145 307 -227
112 -82 201 -154 199 -160 -2 -6 -11 -12 -20 -14 -13 -3 -600 413 -657 465
-12 11 -8 13 26 13 34 0 55 -11 145 -77z m139 -27 c101 -77 143 -103 157 -100
12 3 24 0 28 -6 5 -9 1 -10 -16 -5 -21 6 -22 5 -9 -8 42 -41 342 -257 357
-257 62 -1 303 34 302 44 0 6 -122 106 -270 221 -203 158 -264 211 -248 213
11 2 26 -3 32 -11 7 -8 79 -67 161 -132 l149 -118 97 13 c53 6 102 15 109 19
8 5 -28 41 -106 106 -158 131 -152 125 -127 125 11 0 95 -63 190 -142 93 -79
202 -170 242 -203 70 -58 89 -93 61 -110 -10 -7 -520 -72 -596 -76 -30 -2 -48
4 -76 25 -20 16 -37 34 -37 41 0 7 -24 30 -52 51 -47 34 -123 90 -482 356
l-79 58 38 0 c33 0 57 -14 175 -104z m-6 95 c10 -16 -21 -20 -41 -6 -17 13
-16 14 9 15 15 0 29 -4 32 -9z m89 -5 c16 -13 16 -14 1 -20 -15 -6 -64 17 -64
29 0 10 46 4 63 -9z m185 -3 c6 -19 -63 -16 -79 3 -11 14 -8 15 31 12 24 -2
45 -9 48 -15z m433 -90 c71 -59 125 -110 121 -114 -4 -3 -43 -11 -87 -17 -93
-13 -68 -25 -258 126 -87 69 -115 97 -105 103 7 5 55 9 106 9 l94 0 129 -107z
m189 -38 c91 -78 172 -151 180 -161 8 -11 0 -6 -18 10 -17 16 -34 27 -37 24
-4 -3 22 -30 55 -59 34 -29 66 -63 72 -74 6 -11 -9 -1 -33 21 -24 23 -132 115
-239 204 -107 90 -199 166 -203 170 -4 4 7 7 25 7 28 0 58 -22 198 -142z m66
29 c123 -106 184 -177 184 -214 0 -7 -30 16 -68 51 -37 35 -122 111 -190 168
-67 56 -122 105 -122 107 0 2 14 4 31 4 26 0 56 -21 165 -116z m-1016 91 c7
-8 8 -15 2 -15 -5 0 -15 7 -22 15 -7 8 -8 15 -2 15 5 0 15 -7 22 -15z m245 -5
c18 -19 17 -20 -6 -20 -30 1 -66 26 -47 33 24 10 35 7 53 -13z m-120 -40 c-7
-11 -84 -9 -92 2 -3 6 4 7 18 3 21 -7 22 -6 11 8 -11 13 -10 16 5 19 20 5 65
-20 58 -32z m390 -92 c145 -114 173 -146 120 -136 -23 5 -333 237 -334 251 -1
4 13 7 30 7 24 0 63 -26 184 -122z m-306 98 c18 -22 -15 -29 -45 -10 -13 9
-24 18 -24 20 0 11 59 2 69 -10z m102 -16 l24 -19 -31 -1 c-31 0 -60 21 -47
33 11 12 30 8 54 -13z m-131 -25 c21 -26 -18 -32 -43 -6 l-21 21 26 0 c14 0
31 -7 38 -15z m-70 -5 c8 -5 12 -11 10 -14 -3 -2 -14 2 -24 10 -22 15 -10 19
14 4z m163 -4 c17 -13 16 -14 -3 -19 -12 -3 -29 3 -43 14 l-22 18 25 0 c14 0
33 -6 43 -13z m102 -16 c18 -19 17 -20 -4 -20 -12 0 -32 5 -43 11 -17 9 -18
13 -7 20 21 13 34 11 54 -11z m-210 -21 c11 -17 -1 -21 -15 -4 -8 9 -8 15 -2
15 6 0 14 -5 17 -11z m76 0 c20 -10 17 -29 -4 -29 -7 0 -23 9 -37 20 l-25 20
23 0 c13 0 32 -5 43 -11z m98 -12 c11 -15 5 -27 -13 -27 -6 0 -22 9 -36 20
l-25 20 31 0 c17 0 37 -6 43 -13z m101 -17 l25 -20 -31 0 c-31 0 -60 21 -47
33 11 11 27 7 53 -13z m-127 -24 c16 -13 16 -14 1 -20 -15 -6 -64 17 -64 29 0
10 46 4 63 -9z m90 -10 c17 -13 16 -14 -3 -19 -12 -3 -29 3 -43 14 l-22 18 25
0 c14 0 33 -6 43 -13z m98 -16 l24 -19 -25 0 c-24 0 -60 19 -60 33 0 13 39 5
61 -14z m-206 -20 c3 -5 2 -10 -4 -10 -5 0 -13 5 -16 10 -3 6 -2 10 4 10 5 0
13 -4 16 -10z m79 -3 c17 -12 17 -14 3 -20 -9 -3 -26 3 -39 13 -22 19 -22 19
-2 20 11 0 28 -6 38 -13z m96 -12 c11 -13 9 -15 -13 -15 -13 0 -30 7 -37 15
-11 13 -9 15 13 15 13 0 30 -7 37 -15z m93 -9 c23 -18 21 -26 -6 -26 -13 0
-32 9 -42 20 -18 19 -17 20 6 20 13 0 32 -7 42 -14z m-218 -16 c3 -5 2 -10 -4
-10 -5 0 -13 5 -16 10 -3 6 -2 10 4 10 5 0 13 -4 16 -10z m95 -15 c10 -12 9
-15 -7 -15 -10 0 -28 7 -39 15 -18 14 -18 14 7 15 15 0 32 -7 39 -15z m85 -5
c17 -19 17 -20 1 -20 -25 0 -58 19 -51 31 10 15 31 10 50 -11z m-135 -15 c11
-13 10 -14 -4 -9 -9 3 -16 10 -16 15 0 13 6 11 20 -6z m231 4 c21 -11 17 -29
-5 -29 -8 0 -24 9 -37 20 l-24 19 23 1 c13 0 32 -5 43 -11z m101 -3 c10 -7 15
-16 11 -19 -12 -13 -48 -6 -73 13 l-25 20 35 -1 c19 0 43 -6 52 -13z m-231
-16 c24 -14 25 -30 0 -30 -21 0 -45 23 -34 33 8 9 11 9 34 -3z m90 -10 c24
-13 25 -30 2 -30 -19 1 -53 22 -53 34 0 9 29 7 51 -4z m-136 -18 c-3 -3 -11 0
-18 7 -9 10 -8 11 6 5 10 -3 15 -9 12 -12z m275 -29 c52 -39 61 -53 33 -53
-15 0 -123 75 -123 85 0 17 48 -1 90 -32z m64 22 c19 -14 18 -15 -16 -15 -19
0 -41 7 -48 15 -11 13 -8 15 16 15 16 0 38 -7 48 -15z m-220 -20 c11 -8 16
-18 13 -22 -10 -9 -59 9 -65 25 -5 17 28 15 52 -3z m-69 -5 c3 -5 2 -10 -4
-10 -5 0 -13 5 -16 10 -3 6 -2 10 4 10 5 0 13 -4 16 -10z m172 -16 c24 -18 32
-29 24 -37 -7 -7 -23 -2 -51 18 -51 35 -57 45 -29 45 12 0 38 -12 56 -26z
m181 -11 c5 -18 -40 -16 -64 2 -18 14 -17 15 20 13 22 -2 41 -9 44 -15z m-288
-23 c14 -11 21 -20 15 -20 -5 0 -21 9 -35 20 -14 11 -20 20 -15 20 6 0 21 -9
35 -20z m70 5 c11 -13 9 -15 -13 -15 -13 0 -30 7 -37 15 -11 13 -9 15 13 15
13 0 30 -7 37 -15z m-2713 -502 c-3 -2 -37 58 -75 134 -38 76 -82 160 -96 187
-14 27 -26 56 -25 65 0 9 45 -73 100 -183 55 -109 98 -200 96 -203z m-127
-143 c0 -10 -46 -33 -138 -69 -75 -29 -290 -114 -476 -187 -258 -103 -341
-132 -348 -122 -4 7 -6 18 -5 23 5 17 951 393 959 381 4 -6 8 -18 8 -26z m190
-3 c0 -39 -21 -98 -32 -91 -5 4 -15 0 -20 -7 -8 -11 -9 -10 -4 4 3 10 13 42
22 72 15 54 34 66 34 22z m1203 -353 c337 -153 573 -266 578 -277 12 -21 -32
-130 -65 -163 -12 -11 -39 -60 -60 -107 -21 -48 -40 -86 -42 -84 -2 2 28 75
66 162 38 88 67 162 62 165 -4 4 -189 90 -412 193 -223 102 -483 222 -577 266
-95 44 -173 77 -173 73 0 -6 357 -173 1012 -474 76 -35 138 -67 138 -71 0 -10
-391 -899 -400 -910 -12 -14 -90 36 -88 56 2 14 -97 75 -472 286 -319 180
-479 265 -487 259 -7 -6 -22 -3 -40 8 -15 10 -29 19 -30 19 -2 1 76 187 172
414 96 227 175 416 175 420 0 17 27 32 50 28 14 -2 281 -120 593 -263z m-1266
214 c-3 -8 -6 -5 -6 6 -1 11 2 17 5 13 3 -3 4 -12 1 -19z m3413 -11 c108 -11
115 -13 118 -34 4 -27 16 -27 -173 -8 -225 23 -351 23 -398 1 -36 -18 -157
-141 -209 -213 -13 -17 -74 -89 -136 -159 -63 -71 -121 -145 -129 -166 -17
-43 -27 -47 -43 -19 -19 37 -9 52 253 354 172 199 226 241 331 258 57 8 214 3
386 -14z m-3414 -72 c-4 -18 -18 -54 -32 -81 -14 -27 -43 -96 -64 -154 -22
-58 -39 -101 -39 -96 -1 4 26 94 59 198 33 104 60 192 60 196 0 4 5 -1 11 -11
6 -10 8 -33 5 -52z m3109 25 c23 -6 14 -8 -38 -9 -63 -1 -109 -15 -145 -44
-10 -8 -10 -12 -1 -17 8 -6 8 -9 0 -14 -6 -4 -11 -2 -11 5 0 8 -5 8 -17 -2
-10 -7 -4 2 12 20 55 60 122 81 200 61z m185 -40 c129 -11 236 -23 239 -25 8
-8 -58 -5 -224 10 -202 19 -302 19 -335 0 -30 -17 -44 -19 -34 -4 9 16 65 38
95 39 14 0 131 -9 259 -20z m179 14 c83 -9 78 -21 -6 -16 -73 5 -132 20 -82
21 14 1 54 -2 88 -5z m-144 -42 l200 -17 3 -34 c3 -30 -4 -41 -58 -96 -33 -33
-57 -64 -54 -68 4 -4 31 -7 61 -7 29 0 53 -4 53 -10 0 -13 -73 -12 -384 5
-164 9 -266 10 -277 4 -23 -12 -199 -214 -199 -228 0 -6 21 -11 48 -12 26 -1
63 -3 82 -4 19 -2 148 -6 285 -10 138 -4 257 -9 265 -11 8 -1 52 -3 98 -3 77
-1 82 -2 82 -22 l0 -22 -222 6 c-250 8 -616 8 -725 0 -40 -2 -73 -1 -73 3 0 4
18 29 40 55 43 51 53 74 20 44 -11 -10 -20 -15 -20 -10 0 4 -6 2 -14 -5 -8 -6
-13 -17 -10 -24 3 -7 -2 -19 -11 -26 -13 -10 -15 -9 -15 6 0 25 50 99 59 87
18 -29 51 1 198 174 85 102 153 187 150 189 -2 3 -71 -74 -152 -171 -82 -96
-150 -175 -153 -175 -3 0 2 8 12 19 9 10 14 25 11 33 -4 10 41 63 136 159 77
79 147 144 153 145 7 1 30 11 52 22 48 26 90 26 359 4z m201 -209 c-2 -3 -23
-2 -46 2 l-42 7 43 45 44 44 3 -47 c2 -25 1 -48 -2 -51z m-623 -48 c-16 -22
-63 -36 -63 -18 0 16 35 43 57 43 24 0 24 0 6 -25z m157 16 c38 -6 42 -8 22
-15 -13 -4 -40 -5 -61 -1 -28 5 -41 2 -51 -9 -12 -16 -50 -22 -50 -9 0 3 7 15
17 25 17 19 47 21 123 9z m130 -10 c0 -16 -21 -24 -32 -13 -6 6 -17 8 -26 5
-10 -4 -13 -2 -8 5 9 14 66 16 66 3z m95 -11 c-3 -5 -19 -10 -36 -10 -16 0
-29 5 -29 10 0 6 16 10 36 10 21 0 33 -4 29 -10z m85 1 c0 -16 -43 -41 -69
-41 l-24 0 23 25 c23 24 70 35 70 16z m118 -1 c35 0 42 -3 42 -20 0 -18 -7
-20 -87 -20 l-86 0 24 26 c16 17 30 23 44 20 11 -3 39 -6 63 -6z m-333 -21 c5
-7 -18 -8 -76 -3 -46 3 -86 8 -88 10 -2 2 32 4 77 4 47 0 84 -5 87 -11z m93
-6 c-10 -2 -28 -2 -40 0 -13 2 -5 4 17 4 22 1 32 -1 23 -4z m-408 -43 c-38
-48 -40 -49 -64 -41 -17 7 -16 10 14 44 21 24 41 37 57 37 l25 0 -32 -40z
m100 32 c0 -16 -24 -32 -47 -32 -21 0 -22 2 -11 20 12 19 58 29 58 12z m80 0
c0 -15 -24 -32 -47 -32 -25 0 -29 10 -11 28 13 13 58 16 58 4z m143 -9 c11
-10 -26 -32 -57 -33 -15 0 -41 -11 -57 -24 -33 -28 -79 -26 -57 3 43 57 50 61
108 61 31 0 60 -3 63 -7z m77 -18 c-7 -8 -26 -15 -42 -15 -26 0 -29 2 -18 15
7 8 26 15 42 15 26 0 29 -2 18 -15z m90 7 c0 -15 -48 -35 -67 -28 -17 7 -17 8
1 22 21 15 66 19 66 6z m69 -18 c-6 -8 -26 -14 -43 -14 l-31 1 22 18 c27 22
71 18 52 -5z m81 1 c-7 -8 -26 -15 -42 -15 -26 0 -29 2 -18 15 7 8 26 15 42
15 26 0 29 -2 18 -15z m41 -18 c-16 -16 -26 0 -10 19 9 11 15 12 17 4 2 -6 -1
-17 -7 -23z m-621 5 c0 -15 -24 -32 -47 -32 -25 0 -29 10 -11 28 13 13 58 16
58 4z m65 -12 c-10 -11 -29 -20 -43 -20 -24 0 -25 1 -7 20 10 11 29 20 43 20
24 0 25 -1 7 -20z m169 4 c25 -10 0 -34 -35 -34 -31 0 -36 9 -17 28 13 13 28
15 52 6z m96 -19 c-7 -8 -28 -15 -47 -15 -30 0 -34 2 -23 15 7 8 28 15 47 15
30 0 34 -2 23 -15z m80 0 c-7 -8 -26 -15 -42 -15 -26 0 -29 2 -18 15 7 8 26
15 42 15 26 0 29 -2 18 -15z m82 5 c6 0 6 -6 -2 -15 -7 -8 -26 -15 -43 -15
-30 0 -30 0 -12 20 10 12 25 18 33 15 7 -3 18 -5 24 -5z m78 -15 c-7 -8 -26
-15 -42 -15 -26 0 -29 2 -18 15 7 8 26 15 42 15 26 0 29 -2 18 -15z m60 0 c0
-9 -9 -15 -21 -15 -18 0 -19 2 -9 15 7 8 16 15 21 15 5 0 9 -7 9 -15z m-752
-17 c-5 -15 -58 -24 -58 -10 0 15 12 22 38 22 14 0 22 -5 20 -12z m72 -3 c-7
-8 -24 -15 -37 -15 -22 0 -24 2 -13 15 7 8 24 15 37 15 22 0 24 -2 13 -15z
m80 7 c0 -14 -23 -32 -42 -32 -21 0 -23 11 -6 28 13 13 48 16 48 4z m128 -14
c-5 -15 -118 -24 -118 -10 0 17 14 22 68 22 38 0 53 -4 50 -12z m85 2 c6 0 4
-7 -5 -16 -12 -12 -24 -15 -45 -9 -27 6 -27 7 -8 21 11 8 26 12 33 9 8 -3 19
-5 25 -5z m87 -15 c-7 -8 -28 -15 -47 -15 -30 0 -34 2 -23 15 7 8 28 15 47 15
30 0 34 -2 23 -15z m80 0 c-7 -8 -26 -15 -42 -15 -26 0 -29 2 -18 15 7 8 26
15 42 15 26 0 29 -2 18 -15z m90 5 c0 -15 -35 -29 -59 -23 -20 5 -20 6 -4 19
21 16 63 19 63 4z m70 -15 c-13 -16 -60 -21 -60 -7 0 15 13 22 43 22 25 0 28
-2 17 -15z m60 0 c0 -9 -9 -15 -21 -15 -18 0 -19 2 -9 15 7 8 16 15 21 15 5 0
9 -7 9 -15z m-790 -5 c0 -5 -12 -10 -26 -10 -14 0 -23 4 -19 10 3 6 15 10 26
10 10 0 19 -4 19 -10z m80 -6 c0 -2 -12 -4 -26 -4 -14 0 -23 4 -20 9 6 8 46 4
46 -5z m63 -1 c-7 -2 -21 -2 -30 0 -10 3 -4 5 12 5 17 0 24 -2 18 -5z m82 -3
c4 -6 -6 -10 -22 -10 -22 0 -25 2 -13 10 19 12 27 12 35 0z m83 -7 c-10 -2
-26 -2 -35 0 -10 3 -2 5 17 5 19 0 27 -2 18 -5z m65 0 c-7 -2 -19 -2 -25 0 -7
3 -2 5 12 5 14 0 19 -2 13 -5z m77 -3 c0 -5 -9 -10 -21 -10 -11 0 -17 5 -14
10 3 6 13 10 21 10 8 0 14 -4 14 -10z m63 -7 c-7 -2 -19 -2 -25 0 -7 3 -2 5
12 5 14 0 19 -2 13 -5z m70 0 c-7 -2 -19 -2 -25 0 -7 3 -2 5 12 5 14 0 19 -2
13 -5z m92 -3 c-3 -5 -12 -7 -20 -3 -21 7 -19 13 6 13 11 0 18 -4 14 -10z m65
0 c0 -5 -7 -10 -15 -10 -8 0 -15 5 -15 10 0 6 7 10 15 10 8 0 15 -4 15 -10z
m-4022 -75 c-11 -12 -778 -249 -784 -243 -1 2 173 60 389 130 351 113 413 131
395 113z m3682 3 c146 -1 293 -4 328 -6 56 -3 63 -6 60 -23 -3 -20 -12 -20
-363 -19 -198 1 -380 3 -405 4 -25 2 -55 4 -67 5 -23 1 -32 29 -15 45 4 4 50
5 102 2 52 -3 214 -7 360 -8z m-507 -48 c5 -20 14 -20 414 -20 224 0 425 -3
446 -6 27 -5 37 -11 37 -25 0 -18 -18 -19 -491 -19 l-490 0 5 -42 c3 -24 22
-218 42 -433 20 -214 38 -392 40 -395 5 -5 835 48 872 56 20 4 23 1 20 -18
l-3 -23 -455 -32 c-250 -17 -456 -30 -458 -29 -1 2 -20 203 -42 447 -21 244
-41 470 -44 502 l-6 57 54 0 c45 0 54 -3 59 -20z m-136 -12 c-3 -8 -6 -5 -6 6
-1 11 2 17 5 13 3 -3 4 -12 1 -19z m38 -383 c4 -49 3 -76 -3 -70 -5 6 -14 93
-21 195 -21 333 -8 268 24 -125z m995 -85 l0 -390 -32 -1 c-18 0 -213 -13
-433 -28 -220 -15 -404 -24 -408 -21 -5 4 -24 169 -42 366 -19 198 -36 383
-40 412 l-5 52 480 0 480 0 0 -390z m-3264 344 c24 -14 44 -31 44 -38 0 -14
914 -538 944 -541 12 -2 46 -18 76 -36 44 -27 50 -34 34 -40 -10 -4 -149 -57
-307 -118 -317 -122 -343 -128 -418 -87 -88 47 -1030 677 -1036 693 -14 36 13
46 312 119 165 39 301 73 303 73 2 1 23 -11 48 -25z m371 -160 c142 -81 342
-194 446 -252 184 -104 187 -107 168 -125 -19 -19 -27 -15 -452 228 -239 136
-440 252 -447 258 -9 7 -9 13 -1 23 6 8 15 14 19 14 5 0 125 -66 267 -146z
m-512 -381 c270 -179 504 -331 522 -339 66 -29 119 -19 325 60 222 86 237 91
222 79 -6 -4 -13 -14 -15 -22 -6 -16 -122 -61 -159 -61 -14 0 -74 -18 -134
-41 -133 -48 -180 -56 -226 -37 -19 8 -162 99 -318 203 -156 103 -285 185
-288 183 -3 -4 178 -129 290 -200 6 -4 7 -10 4 -13 -7 -7 -672 438 -684 457
-3 5 60 -34 140 -88 80 -53 148 -95 151 -92 3 3 -78 60 -181 128 -102 68 -190
133 -196 144 -9 17 -4 15 23 -8 19 -16 255 -175 524 -353z m1492 370 c-2 -5
-48 -104 -102 -221 -54 -117 -100 -211 -101 -209 -7 6 190 437 199 437 4 0 6
-3 4 -7z m-1462 -464 c226 -151 428 -283 450 -294 73 -34 133 -32 248 10 56
21 107 42 112 46 6 4 57 23 115 43 178 59 264 95 292 121 33 30 34 30 41 5 11
-44 -24 -65 -280 -160 -137 -51 -282 -101 -323 -112 -149 -38 -211 -13 -576
233 -132 88 -304 204 -384 257 -145 97 -260 197 -260 226 0 10 25 -4 78 -42
42 -32 262 -182 487 -333z m2412 64 c-2 -16 -4 -5 -4 22 0 28 2 40 4 28 2 -13
2 -35 0 -50z m36 -289 c3 -3 198 8 434 25 235 17 444 30 463 30 74 -3 -82 -17
-477 -45 -222 -15 -403 -32 -403 -37 0 -5 37 -6 88 -3 48 4 242 18 431 31 189
14 355 25 370 24 l26 -1 -25 -8 c-14 -4 -224 -23 -467 -41 -346 -26 -445 -30
-456 -21 -22 18 -28 82 -20 200 l7 107 12 -128 c6 -70 14 -130 17 -133z
m-1242 172 c-33 -35 -80 -53 -91 -35 -6 9 -4 17 7 23 10 5 18 4 24 -5 6 -11
11 -11 21 -1 9 9 9 12 -2 13 -8 0 -1 7 15 14 44 21 51 18 26 -9z m-640 -231
c38 0 61 -3 51 -7 -41 -16 -110 -8 -163 20 -29 15 -54 33 -57 40 -2 7 20 -2
49 -20 46 -29 61 -33 120 -33z m1344 -524 l40 -19 -65 -1 c-36 -1 -160 -10
-275 -21 -116 -10 -336 -31 -490 -45 -428 -39 -455 -45 -516 -112 -32 -34
-110 -162 -133 -218 -9 -22 -25 -49 -35 -60 -19 -22 -115 -184 -150 -252 -11
-23 -21 -54 -21 -68 0 -33 -27 -33 -42 0 -15 32 -12 37 143 302 137 235 164
275 210 322 87 85 150 98 689 146 157 14 321 29 365 34 145 15 236 12 280 -8z
m-40 -47 c-11 -2 -182 -20 -380 -39 -198 -19 -379 -38 -402 -41 -24 -3 -43 -1
-43 4 0 5 55 14 123 20 67 6 196 19 287 28 286 27 334 31 385 31 28 0 41 -1
30 -3z m123 -17 c8 -9 1 -11 -31 -9 -44 3 -1123 -101 -1217 -118 -32 -6 -74
-23 -100 -41 l-45 -30 41 40 c49 47 12 40 484 86 195 19 400 40 455 46 408 44
399 43 413 26z m2 -32 c10 -12 9 -20 -6 -43 -35 -53 -364 -481 -375 -488 -7
-4 -55 -8 -108 -10 -103 -2 -1043 -155 -1064 -173 -7 -5 -30 -12 -52 -16 -22
-3 -50 -8 -62 -11 -13 -2 -23 -1 -23 4 0 5 72 136 161 291 184 322 187 326
311 343 107 15 1105 115 1159 117 30 1 51 -4 59 -14z m-1195 -55 c-11 -5 -35
-9 -53 -9 -39 -1 -86 -23 -126 -60 -26 -24 -28 -24 -15 -3 27 45 104 80 179
80 28 1 31 -1 15 -8z m-1530 -475 c61 -37 112 -69 114 -71 2 -2 0 -13 -5 -24
-8 -19 -19 -14 -164 73 -85 51 -284 171 -443 266 -158 95 -286 176 -284 179 2
4 7 15 10 25 5 14 58 -14 334 -181 180 -109 378 -229 438 -267z m1332 348 c-3
-5 -53 -92 -112 -195 -58 -104 -107 -188 -108 -188 -1 0 -2 12 -2 28 0 31 44
112 85 157 15 17 51 69 79 118 29 48 55 87 57 87 3 0 3 -3 1 -7z m888 -382
c13 -22 -31 -39 -151 -59 -71 -12 -286 -49 -479 -82 -192 -33 -360 -60 -373
-60 -19 0 -23 5 -20 23 3 21 21 25 483 103 503 86 530 90 540 75z m132 -101
c13 -47 60 -209 104 -360 45 -151 92 -312 105 -357 13 -45 21 -89 18 -97 -6
-15 -68 -37 -199 -69 -126 -32 -982 -258 -1012 -268 -55 -18 -70 -5 -94 72
-12 38 -19 79 -16 89 3 11 -1 45 -10 76 -8 31 -12 58 -10 61 3 2 20 -50 38
-116 18 -66 35 -125 39 -130 3 -6 34 -2 80 10 41 11 305 78 585 150 281 72
527 135 549 140 21 6 36 13 33 15 -4 5 -225 -50 -712 -176 -440 -113 -517
-132 -525 -124 -4 5 -38 119 -75 254 -37 135 -96 348 -131 474 -35 126 -63
231 -61 233 2 1 25 7 51 12 38 7 48 6 55 -7 8 -14 36 -11 257 27 137 23 283
48 324 56 41 8 170 30 285 50 120 20 214 41 220 49 13 17 35 25 59 23 15 -2
24 -21 43 -87z m-1277 29 c-6 -10 -16 -18 -22 -16 -6 1 -13 -4 -16 -12 -3 -9
0 -11 8 -6 7 4 5 -5 -4 -24 -9 -17 -19 -31 -23 -31 -10 0 6 71 22 96 19 29 50
23 35 -7z m24 -392 c51 -190 64 -248 51 -236 -5 5 -115 429 -115 443 0 25 12
-15 64 -207z m-1450 -11 c78 -40 240 -124 361 -186 121 -62 225 -117 230 -123
14 -13 22 -17 -387 189 -311 156 -380 194 -352 194 4 0 70 -33 148 -74z m489
-223 c83 -43 170 -86 192 -95 27 -11 33 -17 19 -17 -18 -1 -346 160 -368 180
-22 20 12 5 157 -68z m1084 -195 c-3 -8 -6 -5 -6 6 -1 11 2 17 5 13 3 -3 4
-12 1 -19z m10 -40 c-3 -8 -6 -5 -6 6 -1 11 2 17 5 13 3 -3 4 -12 1 -19z
m2338 -364 c286 -130 524 -240 529 -245 5 -5 8 -11 5 -13 -3 -3 -232 100 -509
227 -563 260 -540 250 -540 238 0 -8 174 -90 770 -363 107 -50 215 -99 239
-109 24 -11 41 -22 38 -25 -6 -6 -189 77 -826 373 -134 62 -246 111 -249 108
-2 -2 35 -23 84 -45 757 -347 989 -459 992 -479 2 -11 0 -21 -4 -21 -3 0 -245
110 -535 245 -291 136 -533 244 -538 241 -9 -6 -321 -689 -321 -704 0 -6 42
-34 93 -63 322 -181 909 -510 944 -528 l43 -21 28 62 c16 35 87 199 158 366
97 227 130 295 132 273 2 -20 -48 -145 -163 -407 -92 -209 -168 -381 -170
-383 -2 -2 -24 8 -49 23 -31 18 -43 31 -40 43 3 15 -90 71 -473 285 -294 165
-480 263 -484 257 -7 -12 -69 15 -69 31 0 5 7 24 15 42 14 32 52 122 245 583
94 226 104 245 124 245 6 0 245 -106 531 -236z m-209 -32 c176 -82 415 -193
532 -247 116 -55 212 -103 212 -107 0 -26 -324 -768 -335 -768 -6 0 -193 102
-415 226 -223 124 -456 253 -517 287 -62 34 -113 67 -113 72 -1 15 304 684
311 685 4 0 150 -67 325 -148z m-2288 -354 c2 -10 -39 -84 -92 -165 -183 -285
-575 -878 -594 -901 -20 -22 -22 -22 -304 -21 -178 1 -261 5 -223 9 33 4 95 8
137 9 70 1 81 4 107 29 16 15 152 203 302 417 348 497 379 544 370 550 -8 4
-262 -38 -301 -50 -10 -3 -26 -18 -36 -33 -9 -15 -55 -78 -102 -141 -55 -75
-80 -116 -73 -121 9 -5 7 -10 -4 -20 -13 -11 -15 -10 -9 4 18 47 -14 5 -294
-384 -163 -226 -172 -239 -172 -255 0 -11 -12 -15 -50 -15 -27 0 -50 2 -50 4
0 16 14 36 25 36 11 0 223 275 562 729 55 74 99 141 96 150 -2 9 11 33 29 54
l33 38 280 49 c298 52 358 56 363 28z m22 -11 c0 -13 -45 -94 -100 -181 -55
-88 -99 -161 -97 -163 3 -2 37 47 77 109 81 125 107 159 65 83 -54 -95 -427
-665 -436 -665 -8 0 30 64 94 158 16 24 27 46 24 48 -2 3 -71 -96 -152 -220
-132 -203 -175 -262 -175 -242 0 4 11 22 24 39 25 34 322 487 538 821 70 109
128 207 128 217 0 11 2 19 5 19 3 0 5 -10 5 -23z m4 -166 c-20 -53 -47 -97
-317 -516 -234 -363 -250 -385 -282 -385 -22 0 -19 8 46 108 221 335 494 763
526 824 34 63 38 67 41 43 2 -16 -4 -49 -14 -74z m-353 70 c-10 -18 -61 -36
-61 -20 0 15 32 39 51 39 16 0 18 -3 10 -19z m-71 5 c0 -2 -16 -28 -35 -57
-29 -45 -70 -78 -81 -66 -5 5 56 91 77 110 20 16 39 22 39 13z m-94 -56 c-26
-39 -51 -58 -62 -47 -9 9 47 86 64 90 27 6 27 0 -2 -43z m-56 5 c-26 -28 -40
-32 -40 -12 0 19 21 37 44 37 18 0 18 -1 -4 -25z m-66 -19 c-9 -15 -19 -24
-22 -22 -2 3 3 17 12 32 10 14 20 23 23 21 2 -3 -3 -17 -13 -31z m244 2 c-14
-21 -68 -44 -68 -29 0 16 42 51 62 51 19 0 19 -2 6 -22z m-364 -17 c3 -4 -18
-39 -47 -77 -29 -38 -169 -223 -310 -410 -248 -329 -258 -342 -281 -331 -27
13 -74 -53 412 585 175 228 208 263 226 233z m3742 -48 c-14 -26 -25 -45 -26
-41 0 12 43 98 48 94 2 -2 -8 -26 -22 -53z m-3586 39 c0 -15 -38 -44 -51 -40
-9 3 -6 11 9 26 22 22 42 29 42 14z m-70 -26 c0 -2 -7 -9 -15 -16 -13 -11 -14
-10 -9 4 5 14 24 23 24 12z m98 -18 c-9 -13 -25 -24 -37 -26 -20 -3 -21 -2 -9
17 11 18 25 26 52 30 5 0 2 -9 -6 -21z m133 3 c-11 -19 -32 -31 -57 -31 -12 0
-12 4 2 25 20 31 71 37 55 6z m-81 -8 c-1 -16 -28 -43 -44 -43 -23 0 -20 16 6
34 24 17 38 20 38 9z m-130 -21 c0 -15 -24 -32 -44 -32 -18 0 -19 1 -1 20 18
20 45 27 45 12z m-60 -6 c0 -2 -7 -9 -15 -16 -13 -11 -14 -10 -9 4 5 14 24 23
24 12z m2260 -21 c28 -14 50 -31 50 -39 0 -14 914 -541 940 -541 18 0 120 -55
120 -65 0 -4 -84 -39 -186 -78 l-185 -72 -235 0 -235 0 -102 67 c-522 343
-824 548 -831 564 -6 13 -5 24 2 31 6 6 102 33 214 59 178 43 388 95 396 98 1
1 25 -10 52 -24z m-2026 3 c-4 -6 -57 -82 -116 -167 -90 -128 -115 -157 -139
-162 -16 -4 -29 -4 -29 0 0 3 52 78 116 166 103 144 128 169 167 174 5 1 5 -4
1 -11z m-143 -17 c-9 -16 -51 -37 -51 -24 0 17 24 43 41 43 16 0 18 -3 10 -19z
m36 -26 c-42 -37 -65 -32 -30 7 9 10 26 18 37 18 19 -1 19 -2 -7 -25z m2383
-51 c735 -415 750 -424 737 -445 -7 -11 -18 -17 -26 -14 -13 5 -871 493 -880
501 -8 7 9 34 22 34 7 0 73 -34 147 -76z m-2558 44 c-7 -7 -12 -8 -12 -2 0 14
12 26 19 19 2 -3 -1 -11 -7 -17z m59 3 c-10 -18 -40 -35 -48 -27 -9 9 23 46
40 46 14 0 16 -4 8 -19z m37 -31 c-12 -19 -45 -36 -54 -28 -9 9 29 48 47 48
17 0 18 -3 7 -20z m-128 -15 c-7 -9 -15 -13 -17 -11 -7 7 7 26 19 26 6 0 6 -6
-2 -15z m180 7 c0 -16 -38 -44 -55 -40 -14 3 -14 6 5 26 21 22 50 30 50 14z
m-142 -31 c-15 -25 -51 -29 -41 -5 5 14 43 36 51 29 2 -2 -3 -12 -10 -24z m40
-30 c-7 -12 -23 -21 -37 -21 -20 0 -22 2 -10 16 13 16 51 35 57 29 2 -2 -3
-12 -10 -24z m48 -20 c-16 -18 -56 -35 -56 -24 0 20 25 43 47 43 25 0 25 -1 9
-19z m-138 -17 c-32 -32 -56 -29 -33 4 9 12 26 22 38 22 21 0 21 -1 -5 -26z
m2138 -309 c244 -162 444 -297 444 -300 0 -8 -35 11 -89 48 -32 22 -45 26 -51
17 -5 -9 -106 53 -338 209 -182 122 -334 226 -337 231 -3 6 2 7 12 4 12 -3 10
1 -7 13 -82 60 -105 81 -108 98 -3 18 -1 17 13 -3 10 -13 217 -156 461 -317z
m1550 283 c-71 -161 -179 -388 -182 -385 -5 4 174 407 188 425 19 23 18 12 -6
-40z m-3756 7 c-7 -9 -15 -13 -18 -10 -3 2 1 11 8 20 7 9 15 13 18 10 3 -2 -1
-11 -8 -20z m120 7 c0 -16 -38 -44 -55 -40 -14 3 -14 6 5 26 21 22 50 30 50
14z m38 -34 c-19 -28 -61 -38 -52 -13 6 15 36 33 58 34 5 1 2 -9 -6 -21z
m-128 -8 c0 -12 -49 -45 -56 -37 -3 3 1 14 8 26 13 21 48 29 48 11z m1802 -72
c46 -35 221 -155 389 -268 295 -198 305 -205 268 -208 -34 -3 -58 11 -241 134
-441 298 -456 309 -487 364 -12 22 -20 40 -17 40 2 0 42 -28 88 -62z m-1882
37 c-7 -8 -17 -15 -22 -15 -6 0 -5 7 2 15 7 8 17 15 22 15 6 0 5 -7 -2 -15z
m120 5 c0 -12 -49 -45 -56 -37 -3 3 -1 15 6 26 11 21 50 30 50 11z m40 -29
c-9 -19 -47 -38 -56 -29 -9 9 29 48 47 48 16 0 18 -3 9 -19z m-130 -12 c-12
-22 -33 -33 -50 -27 -15 5 27 48 46 48 12 0 13 -4 4 -21z m-60 -3 c0 -2 -7 -9
-15 -16 -13 -11 -14 -10 -9 4 5 14 24 23 24 12z m1181 -19 c-10 -9 -11 -8 -5
6 3 10 9 15 12 12 3 -3 0 -11 -7 -18z m-1081 -8 c-12 -22 -33 -33 -52 -27 -16
6 26 48 47 48 13 0 14 -4 5 -21z m40 -28 c-6 -12 -15 -21 -20 -21 -4 0 -16 -3
-25 -7 -15 -5 -16 -3 -6 16 11 20 51 44 59 36 2 -2 -1 -13 -8 -24z m78 -1
c-13 -21 -48 -35 -69 -28 -21 7 28 48 56 48 23 0 24 -2 13 -20z m-214 -15
c-19 -29 -57 -35 -47 -7 6 15 5 16 -12 2 -16 -13 -18 -13 -13 0 2 8 12 15 21
15 8 0 19 4 23 8 4 4 16 7 26 7 17 0 18 -1 2 -25z m40 -30 c-16 -25 -62 -37
-48 -12 16 28 27 37 45 37 18 0 19 -1 3 -25z m50 -20 c-10 -16 -26 -25 -42
-25 l-25 0 23 25 c13 14 32 25 42 25 17 0 18 -1 2 -25z m-186 -5 c-7 -11 -16
-20 -21 -20 -4 0 -3 9 3 20 6 11 15 20 20 20 6 0 5 -9 -2 -20z m206 -14 c-9
-15 -19 -24 -22 -22 -2 3 3 17 12 32 10 14 20 23 23 21 2 -3 -3 -17 -13 -31z
m50 9 c-9 -14 -23 -25 -30 -25 -12 0 -11 5 2 25 9 14 23 25 30 25 12 0 11 -5
-2 -25z m-210 -10 c-9 -14 -25 -25 -35 -25 -18 0 -19 1 -3 25 9 14 25 25 35
25 18 0 19 -1 3 -25z m46 -26 c-10 -19 -50 -41 -59 -33 -10 9 32 54 50 54 17
0 18 -3 9 -21z m-135 -19 c-10 -11 -20 -18 -23 -15 -7 6 18 35 31 35 5 0 2 -9
-8 -20z m163 -26 c-18 -25 -35 -47 -38 -49 -11 -6 -100 -15 -100 -10 0 21 24
45 45 45 14 0 39 13 57 30 18 16 41 30 51 30 15 0 13 -7 -15 -46z m82 6 c-22
-31 -36 -38 -42 -19 -2 6 -21 -14 -42 -45 -21 -31 -42 -56 -47 -56 -9 0 83
139 93 140 4 0 5 -7 2 -15 -4 -8 -2 -15 4 -15 5 0 12 9 15 20 3 11 13 20 22
20 14 0 14 -4 -5 -30z m-220 -25 c-19 -28 -38 -45 -51 -45 -18 0 -17 4 12 45
19 26 40 45 51 45 17 0 15 -5 -12 -45z m-655 -107 c79 -73 142 -134 140 -137
-4 -4 -295 257 -295 265 0 12 24 -7 155 -128z m585 87 c-7 -9 -15 -13 -17 -11
-7 7 7 26 19 26 6 0 6 -6 -2 -15z m235 -32 c-57 -89 -70 -103 -98 -103 -25 0
-27 2 -17 20 6 11 19 20 30 20 11 0 31 18 50 45 33 48 64 64 35 18z m-145 -12
c0 -12 -40 -41 -57 -41 -19 0 -3 30 21 40 28 12 36 12 36 1z m58 -11 c-7 -11
-23 -20 -36 -20 -20 0 -21 3 -12 20 6 12 21 20 35 20 23 0 24 -2 13 -20z
m-198 -15 c-7 -9 -15 -13 -18 -10 -3 2 1 11 8 20 7 9 15 13 18 10 3 -2 -1 -11
-8 -20z m70 17 c0 -14 -23 -32 -42 -32 -16 0 -16 3 -6 20 12 19 48 28 48 12z
m90 -50 c0 -14 -23 -32 -42 -32 -10 0 -18 5 -18 12 0 6 -7 4 -18 -5 -20 -18
-52 -23 -52 -8 0 17 31 33 55 29 14 -3 28 -1 31 3 7 11 44 12 44 1z m-190 -10
c0 -10 -22 -32 -32 -32 -5 0 -3 9 4 20 13 20 28 27 28 12z m60 0 c0 -14 -24
-32 -42 -32 -16 0 -17 3 -8 20 10 19 50 29 50 12z m3810 -1 c0 -11 -45 -44
-73 -54 -11 -4 -24 -1 -32 7 -12 12 -11 15 8 20 12 3 25 0 29 -7 7 -11 11 -5
6 9 -3 6 41 33 55 34 4 0 7 -4 7 -9z m40 -49 c0 -37 -53 -62 -130 -62 l-65 0
58 24 c69 29 106 52 114 72 8 21 23 -1 23 -34z m-3771 -11 c-8 -12 -29 -21
-62 -25 -55 -8 -60 -6 -51 17 6 16 20 20 87 25 35 3 37 1 26 -17z m76 -1 c-10
-12 -31 -20 -48 -20 -29 0 -30 0 -12 20 10 12 31 20 48 20 29 0 30 0 12 -20z
m-265 -10 c-6 -11 -15 -20 -21 -20 -6 0 -6 7 1 20 6 11 15 20 21 20 6 0 6 -7
-1 -20z m60 0 c-10 -19 -50 -29 -50 -12 0 14 24 32 42 32 16 0 17 -3 8 -20z
m564 -25 c-23 -36 -30 -23 -8 15 10 17 20 26 22 21 2 -5 -4 -21 -14 -36z
m3109 16 c-3 -11 -19 -25 -35 -30 -38 -13 -96 -15 -82 -2 7 6 79 37 121 50 0
1 -1 -8 -4 -18z"/>
<path d="M2394 6282 c6 -10 -20 6 584 -361 405 -246 514 -308 477 -272 -16 16
-1048 641 -1057 641 -5 0 -7 -4 -4 -8z"/>
<path d="M4225 6960 c10 -17 296 -252 301 -247 5 4 -292 257 -302 257 -3 0 -3
-4 1 -10z"/>
<path d="M2056 5771 c10 -11 1084 -507 1118 -517 19 -5 19 -4 6 8 -8 8 -161
82 -340 163 -179 81 -426 195 -548 252 -210 97 -260 116 -236 94z"/>
<path d="M1866 5364 c-86 -190 -159 -351 -162 -358 -3 -9 124 -86 378 -228
557 -313 699 -391 702 -387 5 6 346 795 346 801 0 3 -33 20 -72 38 -40 19
-275 128 -523 243 -247 115 -464 215 -481 223 l-31 13 -157 -345z m763 47
c261 -122 476 -223 478 -224 1 -2 -69 -169 -157 -373 -88 -203 -163 -377 -167
-387 -7 -15 -20 -10 -113 41 -469 261 -920 515 -933 525 -15 11 0 48 139 354
l156 341 61 -28 c34 -16 276 -128 536 -249z"/>
<path d="M1445 4831 c-166 -41 -165 -41 -165 -50 0 -5 62 -47 138 -94 75 -47
297 -184 492 -304 195 -121 363 -223 372 -226 23 -8 300 92 295 107 -2 6 -136
91 -298 188 -418 253 -463 278 -488 271 -12 -3 -21 -1 -21 6 0 5 8 8 18 5 15
-5 14 -4 -2 10 -11 9 -29 13 -42 10 -12 -3 -25 0 -29 6 -5 9 -1 10 14 5 11 -3
21 -4 21 -2 0 10 -163 97 -179 96 -9 -1 -65 -13 -126 -28z m192 -17 c-7 -7
-57 18 -57 28 0 5 14 1 31 -7 17 -9 29 -19 26 -21z m-72 13 c26 -20 0 -33 -31
-16 -18 9 -21 15 -12 21 18 11 21 10 43 -5z m-31 -32 c33 -20 37 -25 22 -31
-17 -7 -78 20 -98 44 -19 22 34 13 76 -13z m-52 -22 c58 -35 61 -38 36 -41
-34 -4 -144 58 -125 70 18 12 21 11 89 -29z m153 14 c13 -11 15 -16 6 -22 -15
-9 -63 14 -55 27 8 12 28 10 49 -5z m50 3 c8 -13 -5 -13 -25 0 -13 8 -13 10 2
10 9 0 20 -4 23 -10z m-309 -15 c18 -14 17 -14 -13 -15 -44 0 -69 10 -51 21
20 13 42 11 64 -6z m240 -29 c17 -13 17 -15 2 -21 -9 -4 -26 -1 -39 5 -17 10
-19 14 -8 21 19 12 22 11 45 -5z m88 1 c18 -13 18 -14 2 -20 -21 -8 -59 10
-51 24 9 13 28 11 49 -4z m-270 -3 c24 -9 19 -24 -8 -24 -31 0 -56 10 -56 21
0 10 40 12 64 3z m155 -38 c9 -11 7 -15 -7 -18 -21 -6 -52 8 -52 22 0 15 46
12 59 -4z m96 1 c27 -21 1 -32 -37 -16 -27 11 -29 14 -12 20 27 11 28 11 49
-4z m89 0 c18 -13 18 -14 2 -20 -19 -8 -56 8 -56 23 0 14 33 12 54 -3z m-259
-11 c17 -12 17 -13 -8 -20 -26 -6 -77 10 -77 26 0 13 64 9 85 -6z m340 -6 c8
-13 -5 -13 -25 0 -13 8 -13 10 2 10 9 0 20 -4 23 -10z m-202 -22 c21 -11 21
-11 2 -18 -23 -8 -67 8 -59 21 7 12 31 11 57 -3z m111 -19 c-7 -12 -31 -11
-57 3 -21 11 -21 11 -2 18 23 8 67 -8 59 -21z m79 17 c15 -12 16 -14 2 -20
-22 -8 -70 15 -53 26 18 11 30 10 51 -6z m-120 -97 c92 -56 167 -105 167 -109
0 -4 -11 -10 -24 -12 -19 -4 -67 21 -195 101 -159 98 -183 120 -131 121 8 0
90 -46 183 -101z m182 91 c8 -13 -5 -13 -25 0 -13 8 -13 10 2 10 9 0 20 -4 23
-10z m-180 -34 c18 -13 18 -14 -3 -20 -23 -8 -68 15 -55 27 11 11 38 8 58 -7z
m95 -1 c23 -12 23 -14 7 -21 -10 -3 -30 -1 -45 5 -21 10 -23 14 -11 22 18 11
19 11 49 -6z m90 0 c23 -12 23 -14 7 -21 -24 -9 -73 16 -55 28 17 10 18 10 48
-7z m50 5 c13 -8 13 -10 -2 -10 -9 0 -20 5 -23 10 -8 13 5 13 25 0z m-167 -44
c18 -14 18 -14 -2 -21 -23 -7 -64 11 -56 26 9 13 37 11 58 -5z m117 -18 c0
-12 -38 -10 -63 4 -21 11 -21 11 -2 18 21 8 65 -7 65 -22z m90 0 c0 -12 -38
-10 -63 4 -21 11 -21 11 -2 18 21 8 65 -7 65 -22z m45 12 c8 -13 -5 -13 -25 0
-13 8 -13 10 2 10 9 0 20 -4 23 -10z m-185 -35 c23 -12 23 -14 7 -21 -10 -3
-30 -1 -45 5 -21 10 -23 14 -11 22 18 11 19 11 49 -6z m235 5 c3 -5 -1 -10 -9
-10 -8 0 -18 5 -21 10 -3 6 1 10 9 10 8 0 18 -4 21 -10z m-132 -12 c21 -11 21
-11 2 -18 -23 -8 -67 8 -59 21 7 12 31 11 57 -3z m91 6 c22 -9 20 -24 -3 -24
-26 0 -51 10 -51 21 0 10 31 12 54 3z m-123 -44 l24 -19 -30 -1 c-16 0 -37 5
-45 10 -13 9 -13 11 0 20 21 13 25 13 51 -10z m224 10 c3 -5 2 -10 -4 -10 -5
0 -13 5 -16 10 -3 6 -2 10 4 10 5 0 13 -4 16 -10z m-121 -13 c17 -13 17 -14 2
-20 -19 -8 -68 12 -60 24 8 13 38 11 58 -4z m99 -1 c15 -12 16 -14 2 -20 -17
-6 -65 12 -65 26 0 13 43 9 63 -6z m83 -21 c10 -8 14 -15 8 -15 -5 0 -19 7
-30 15 -10 8 -14 15 -8 15 5 0 19 -7 30 -15z m-213 -17 l22 -12 -25 -6 c-24
-6 -60 7 -60 22 0 12 39 9 63 -4z m100 -2 c23 -18 22 -26 -5 -26 -30 1 -65 26
-46 33 21 9 32 7 51 -7z m98 -6 l24 -19 -23 -1 c-13 0 -33 5 -44 11 -17 9 -18
13 -7 20 20 12 24 11 50 -11z m-241 -29 c0 -17 -51 -22 -72 -7 -22 16 -22 16
22 29 17 5 50 -10 50 -22z m320 19 c24 -15 7 -19 -20 -5 -15 8 -19 14 -10 14
8 1 22 -3 30 -9z m-205 -24 c18 -13 18 -14 -3 -20 -20 -7 -62 11 -62 26 0 13
45 9 65 -6z m109 -9 c17 -13 17 -14 2 -20 -18 -7 -66 11 -66 25 0 13 44 9 64
-5z m107 -9 c43 -24 50 -38 19 -38 -19 0 -100 45 -100 55 0 13 46 3 81 -17z
m55 -3 c10 -8 14 -15 8 -15 -5 0 -19 7 -30 15 -10 8 -14 15 -8 15 5 0 19 -7
30 -15z m-320 -10 c10 -8 14 -15 8 -15 -5 0 -19 7 -30 15 -10 8 -14 15 -8 15
5 0 19 -7 30 -15z m-34 -9 c27 -20 9 -27 -23 -10 -16 8 -29 17 -29 19 0 10 36
4 52 -9z m148 -1 c18 -9 40 -13 55 -9 28 7 75 -2 75 -15 0 -4 -20 -16 -44 -25
l-44 -17 -51 31 c-28 18 -49 36 -45 41 7 13 21 11 54 -6z m276 -20 c16 -12 16
-14 3 -15 -9 0 -22 7 -29 15 -16 19 0 19 26 0z m-356 -20 c7 -8 17 -15 22 -15
6 0 4 7 -3 17 -18 21 -7 17 75 -32 37 -22 62 -41 56 -43 -5 -2 -33 11 -61 28
-37 22 -54 28 -59 20 -5 -9 -16 -8 -39 4 -17 9 -29 21 -26 26 9 14 21 12 35
-5z m328 -3 c3 -10 -4 -13 -24 -10 -15 2 -29 9 -32 16 -3 10 4 13 24 10 15 -2
29 -9 32 -16z m-61 -18 c6 -17 -31 -23 -50 -9 -9 7 -14 15 -10 19 11 10 56 3
60 -10z m147 10 c17 -6 22 -24 8 -24 -5 0 -17 7 -28 15 -19 15 -8 20 20 9z
m-29 -37 c-17 -9 -55 0 -55 13 0 13 33 17 52 6 15 -9 15 -12 3 -19z m-182 12
l21 -12 -23 -8 c-28 -11 -72 8 -50 22 18 12 26 11 52 -2z m129 -31 c-13 -13
-54 -7 -59 9 -5 15 27 22 51 10 12 -6 15 -12 8 -19z m-223 -3 c24 -14 51 -23
60 -20 10 3 26 -1 36 -9 18 -13 17 -14 -13 -21 -26 -5 -42 0 -92 31 -33 20
-60 38 -60 40 0 10 30 1 69 -21z m377 10 c10 -8 14 -15 8 -15 -5 0 -19 7 -30
15 -10 8 -14 15 -8 15 5 0 19 -7 30 -15z m-45 -6 c11 -5 17 -14 14 -20 -9 -14
-41 -11 -54 5 -11 13 -7 19 17 25 2 1 12 -4 23 -10z m-177 -5 c22 -9 20 -21
-6 -27 -25 -7 -68 18 -46 26 19 8 34 8 52 1z m126 -19 c10 -12 5 -17 -25 -30
-43 -17 -64 -19 -85 -5 -18 11 -15 14 40 33 57 20 55 20 70 2z m-120 -45 c13
-9 13 -11 0 -20 -8 -5 -22 -10 -30 -10 -8 0 -22 5 -30 10 -13 9 -13 11 0 20 8
5 22 10 30 10 8 0 22 -5 30 -10z"/>
<path d="M1368 4602 c-54 -14 -98 -31 -98 -36 0 -17 321 -221 345 -220 34 3
195 55 195 63 0 7 -315 207 -340 216 -3 1 -49 -9 -102 -23z m259 -88 c85 -53
151 -100 146 -104 -14 -13 -155 -52 -172 -47 -36 9 -315 200 -301 205 30 11
145 40 159 41 7 1 83 -42 168 -95z"/>
<path d="M1340 4436 c0 -7 82 -57 86 -53 2 2 -14 16 -36 31 -38 25 -50 30 -50
22z"/>
<path d="M2950 3291 c-80 -9 -150 -20 -157 -24 -16 -10 -123 -166 -123 -179 0
-6 13 -8 33 -4 17 3 106 15 197 26 186 24 172 16 261 142 l40 58 -53 -1 c-29
-1 -118 -9 -198 -18z m220 3 c0 -18 -105 -145 -123 -149 -25 -5 -329 -45 -346
-45 -14 0 85 149 104 156 12 5 292 40 343 43 12 0 22 -2 22 -5z"/>
<path d="M2715 3064 c-302 -40 -559 -77 -570 -82 -21 -10 -171 -259 -162 -269
12 -11 1143 159 1157 174 31 34 180 235 180 243 0 15 -12 14 -605 -66z m570
36 c-10 -11 -27 -20 -38 -20 -19 0 -20 1 -2 20 10 11 27 20 38 20 19 0 20 -1
2 -20z m-69 -9 c-16 -18 -66 -35 -66 -23 0 16 36 42 58 42 24 0 24 -1 8 -19z
m-78 -10 c-12 -20 -55 -37 -66 -27 -10 11 31 46 55 46 20 0 22 -2 11 -19z
m-85 -13 c-18 -18 -53 -26 -215 -49 -106 -15 -194 -26 -196 -24 -2 2 2 12 10
24 8 13 28 23 58 27 121 19 299 42 330 43 l34 1 -21 -22z m188 -27 c-9 -17
-69 -31 -136 -31 -39 0 12 34 62 41 84 11 85 11 74 -10z m-601 -8 c0 -15 -45
-53 -62 -53 -21 0 -22 9 -5 31 17 23 67 39 67 22z m438 -12 c-15 -25 -60 -35
-56 -13 2 9 14 19 28 23 39 11 41 10 28 -10z m-523 -10 c-8 -13 -65 -15 -65
-2 0 6 15 11 33 13 38 4 41 3 32 -11z m446 0 c-10 -17 -61 -36 -61 -22 1 14
16 29 35 34 34 8 36 8 26 -12z m-90 -22 c-13 -10 -32 -19 -44 -19 -19 0 -19 1
-3 19 17 19 55 32 66 23 3 -2 -6 -12 -19 -23z m-446 12 c-14 -12 -75 -22 -75
-12 0 15 14 21 49 21 20 0 31 -4 26 -9z m734 -15 c-8 -8 -35 -18 -62 -21 -41
-6 -46 -5 -41 9 3 8 22 18 42 21 21 4 44 7 52 9 22 4 26 -3 9 -18z m-834 5
c-3 -6 -27 -13 -53 -17 -26 -3 -57 -15 -69 -26 -11 -11 -29 -18 -38 -16 -16 3
-16 5 3 28 15 18 33 26 73 31 83 10 91 10 84 0z m470 -11 c-18 -20 -55 -28
-55 -12 0 16 24 32 49 32 23 0 24 -1 6 -20z m-305 0 c0 -5 -15 -10 -32 -9 -31
1 -32 1 -8 9 35 11 40 11 40 0z m225 -10 c-18 -20 -55 -28 -55 -12 0 16 24 32
49 32 23 0 24 -1 6 -20z m325 12 c0 -16 -24 -32 -48 -32 -27 0 -21 17 12 30
27 11 36 12 36 2z m-890 -10 c0 -18 -33 -52 -51 -52 -22 0 -24 8 -6 31 17 22
57 37 57 21z m250 -1 c0 -4 -28 -12 -62 -15 -35 -4 -76 -10 -93 -13 -21 -4
-27 -2 -20 5 6 6 42 15 80 20 97 13 95 13 95 3z m240 -11 c-10 -19 -60 -29
-60 -12 0 16 24 32 47 32 21 0 22 -3 13 -20z m318 0 c-7 -11 -23 -20 -36 -20
-30 0 -24 22 9 31 38 11 40 10 27 -11z m-398 -10 c-11 -20 -60 -29 -60 -10 0
12 30 29 53 30 15 0 16 -3 7 -20z m-80 -10 c-6 -11 -17 -20 -25 -20 -7 0 -21
-3 -30 -7 -15 -5 -16 -3 -6 15 9 18 21 23 64 31 4 0 3 -8 -3 -19z m398 8 c-3
-7 -16 -15 -31 -19 -30 -8 -30 -8 -21 15 7 19 58 22 52 4z m-477 -17 c-6 -10
-26 -22 -45 -25 -23 -4 -43 -17 -56 -36 -14 -20 -30 -30 -46 -30 l-26 0 23 38
c12 20 25 40 28 44 5 6 52 16 124 27 4 0 3 -7 -2 -18z m390 -1 c-24 -20 -51
-27 -51 -12 0 16 25 32 50 32 l25 -1 -24 -19z m329 5 c-7 -8 -24 -15 -37 -15
-22 0 -24 2 -13 15 7 8 24 15 37 15 22 0 24 -2 13 -15z m-405 -15 c-18 -20
-55 -28 -55 -12 0 16 24 32 49 32 23 0 24 -1 6 -20z m329 6 c-5 -12 -54 -29
-62 -21 -2 1 4 10 13 19 20 20 57 22 49 2z m-794 -16 c-6 -12 -21 -20 -35 -20
-23 0 -24 2 -13 20 7 11 23 20 36 20 20 0 21 -3 12 -20z m388 0 c-8 -13 -23
-20 -43 -20 l-30 1 24 19 c13 11 32 20 42 20 17 0 18 -3 7 -20z m332 12 c0
-14 -23 -32 -42 -32 -23 0 -23 16 0 29 21 13 42 14 42 3z m-790 -9 c0 -16 -16
-30 -37 -35 -26 -7 -27 -5 -13 23 10 18 50 28 50 12z m378 -13 c-8 -12 -24
-20 -41 -20 -32 0 -28 16 7 30 38 16 48 13 34 -10z m327 0 c-21 -23 -57 -28
-49 -6 5 14 23 22 53 25 11 1 10 -4 -4 -19z m-775 6 c0 -2 -12 -24 -26 -50
-17 -30 -32 -46 -45 -46 -10 0 -19 3 -19 6 0 17 45 84 59 87 24 7 31 7 31 3z
m365 -19 c-6 -14 -55 -30 -64 -21 -8 8 21 33 42 36 28 5 29 4 22 -15z m335 -2
c-7 -8 -24 -15 -37 -15 -21 0 -23 3 -13 14 10 13 49 26 59 19 2 -1 -2 -9 -9
-18z m265 5 c-28 -12 -57 -12 -50 0 3 6 21 10 38 9 27 0 29 -2 12 -9z m-694
-20 c-23 -20 -61 -27 -61 -12 0 17 25 32 55 32 l30 -1 -24 -19z m350 6 c-12
-15 -61 -28 -61 -17 0 15 25 31 48 31 20 0 22 -3 13 -14z m264 4 c-3 -5 -13
-10 -21 -10 -8 0 -12 5 -9 10 3 6 13 10 21 10 8 0 12 -4 9 -10z m-354 -20
c-13 -11 -32 -20 -44 -20 -19 0 -20 1 -2 20 10 11 30 20 44 20 l26 -1 -24 -19z
m289 10 c0 -5 -8 -10 -17 -10 -15 0 -16 2 -3 10 19 12 20 12 20 0z m-790 -29
c-10 -20 -50 -30 -50 -13 0 15 16 30 35 34 27 6 29 3 15 -21z m75 9 c-10 -11
-27 -20 -37 -20 -16 0 -17 3 -8 20 7 12 21 20 37 20 25 0 26 0 8 -20z m355 12
c0 -16 -25 -32 -49 -32 l-26 1 24 19 c24 20 51 27 51 12z m295 -2 c-3 -5 -11
-10 -16 -10 -6 0 -7 5 -4 10 3 6 11 10 16 10 6 0 7 -4 4 -10z m-375 -8 c0 -15
-24 -32 -47 -32 -15 0 -21 4 -17 14 5 13 15 17 57 25 4 0 7 -3 7 -7z m315 -2
c-3 -5 -14 -10 -23 -10 -15 0 -15 2 -2 10 20 13 33 13 25 0z m-60 -10 c-3 -5
-13 -10 -21 -10 -8 0 -12 5 -9 10 3 6 13 10 21 10 8 0 12 -4 9 -10z m-344 -14
c-15 -18 -61 -27 -61 -11 0 19 11 25 43 25 24 0 27 -3 18 -14z m279 4 c-20
-13 -43 -13 -35 0 3 6 16 10 28 10 18 0 19 -2 7 -10z m-362 -12 c-4 -12 -107
-39 -117 -32 -8 7 22 33 42 37 48 9 79 7 75 -5z m272 2 c0 -5 -10 -10 -22 -9
-22 0 -22 1 -3 9 11 5 21 9 23 9 1 1 2 -3 2 -9z m-400 -8 c0 -14 -23 -32 -42
-32 -22 0 -14 27 10 33 28 8 32 7 32 -1z m335 -2 c-3 -5 -16 -10 -28 -9 -20 1
-20 2 3 9 14 4 26 8 28 9 2 1 0 -3 -3 -9z m-415 -20 c-11 -20 -50 -28 -50 -10
0 11 29 29 48 30 10 0 10 -5 2 -20z m345 10 c-3 -5 -14 -10 -23 -9 -14 0 -13
2 3 9 27 11 27 11 20 0z m-415 -20 c-7 -13 -21 -20 -38 -20 l-27 1 24 19 c32
27 55 27 41 0z m350 10 c0 -5 -10 -10 -22 -9 -22 0 -22 1 -3 9 11 5 21 9 23 9
1 1 2 -3 2 -9z m-70 -10 c0 -5 -12 -10 -27 -9 l-28 1 25 8 c14 4 26 8 28 9 1
1 2 -3 2 -9z m-87 -17 c-7 -2 -19 -2 -25 0 -7 3 -2 5 12 5 14 0 19 -2 13 -5z
m-143 -13 c0 -5 -4 -10 -9 -10 -5 0 -16 -3 -25 -6 -9 -3 -16 -1 -16 4 0 9 16
17 43 21 4 0 7 -3 7 -9z m63 3 c-7 -2 -21 -2 -30 0 -10 3 -4 5 12 5 17 0 24
-2 18 -5z m-143 -17 c0 -2 -9 -6 -20 -9 -11 -3 -20 -1 -20 4 0 5 9 9 20 9 11
0 20 -2 20 -4z"/>
<path d="M2600 2613 c-289 -51 -557 -98 -596 -104 -105 -16 -103 -12 -72 -121
15 -51 68 -237 118 -412 49 -176 93 -322 96 -325 3 -3 128 25 277 63 530 134
902 229 904 231 2 0 -8 41 -21 91 -47 173 -88 331 -127 481 -22 84 -43 160
-47 170 -7 18 -37 13 -532 -74z m608 -270 c50 -192 92 -357 94 -368 2 -16 -6
-22 -42 -31 -77 -20 -921 -235 -1000 -255 -41 -10 -82 -19 -91 -19 -11 0 -28
46 -68 188 -29 103 -80 283 -113 400 -33 117 -59 214 -57 216 4 4 177 36 904
165 149 27 273 49 276 50 3 0 47 -155 97 -346z"/>
<path d="M3195 1844 c-71 -19 -332 -86 -580 -150 -247 -64 -457 -120 -465
-125 -44 -25 35 -7 540 126 69 18 242 63 385 100 143 37 264 71 270 76 15 14
-10 10 -150 -27z"/>
<path d="M1565 825 c-38 -6 -79 -15 -90 -19 -18 -6 -247 -326 -240 -335 5 -4
202 18 218 25 12 5 227 324 227 337 0 9 -29 7 -115 -8z m-4 -153 c-55 -82
-106 -153 -113 -159 -7 -6 -53 -14 -102 -18 l-89 -8 62 89 c35 49 83 119 109
155 45 66 46 67 106 76 34 6 76 11 94 12 l32 1 -99 -148z"/>
<path d="M1610 625 c-46 -69 -81 -128 -78 -131 3 -2 42 52 88 121 45 70 80
129 77 131 -2 2 -41 -52 -87 -121z"/>
<path d="M3227 746 c-129 -31 -156 -40 -146 -50 2 -2 92 -58 199 -123 107 -66
299 -184 425 -263 360 -224 375 -233 399 -233 21 1 185 57 255 89 29 13 32 17
20 28 -37 34 -978 586 -998 585 -9 0 -78 -15 -154 -33z m198 4 c17 -11 23 -20
15 -20 -17 0 -71 39 -55 40 6 0 24 -9 40 -20z m-51 -3 c18 -13 18 -14 2 -20
-21 -8 -59 10 -51 24 9 13 28 11 49 -4z m-39 -28 c26 -16 33 -25 25 -33 -7 -7
-23 -3 -56 14 -25 14 -48 28 -50 33 -11 16 47 6 81 -14z m-59 -20 c62 -35 74
-49 43 -49 -34 0 -134 61 -117 71 18 12 14 13 74 -22z m168 8 c18 -13 18 -14
2 -20 -19 -8 -56 8 -56 23 0 14 33 12 54 -3z m46 3 c8 -5 11 -10 5 -10 -5 0
-17 5 -25 10 -8 5 -10 10 -5 10 6 0 17 -5 25 -10z m-316 -6 c24 -9 19 -24 -8
-24 -33 0 -57 10 -50 21 6 10 35 12 58 3z m371 -24 c3 -5 2 -10 -4 -10 -5 0
-13 5 -16 10 -3 6 -2 10 4 10 5 0 13 -4 16 -10z m-122 -14 c15 -12 16 -14 2
-20 -22 -8 -70 15 -53 26 18 11 30 10 51 -6z m90 2 c21 -11 21 -11 2 -18 -23
-9 -58 6 -50 21 8 12 22 11 48 -3z m-263 -13 c11 -13 7 -15 -23 -15 -19 0 -40
7 -47 15 -11 13 -7 15 23 15 19 0 40 -7 47 -15z m345 -5 c3 -5 2 -10 -4 -10
-5 0 -13 5 -16 10 -3 6 -2 10 4 10 5 0 13 -4 16 -10z m-195 -25 c11 -13 8 -15
-13 -15 -32 0 -57 9 -57 21 0 15 57 10 70 -6z m93 1 c18 -14 18 -14 -2 -21
-24 -7 -71 19 -49 28 21 9 32 7 51 -7z m90 0 c17 -13 17 -14 -1 -18 -22 -6
-66 14 -56 25 11 11 37 8 57 -7z m-264 -10 c9 -11 6 -15 -14 -20 -24 -6 -65
11 -65 26 0 14 67 9 79 -6z m341 -6 c0 -5 -7 -7 -15 -4 -8 4 -15 8 -15 10 0 2
7 4 15 4 8 0 15 -4 15 -10z m-197 -22 c21 -11 21 -11 2 -18 -21 -8 -65 7 -65
22 0 12 38 10 63 -4z m96 -2 c24 -13 24 -14 3 -20 -28 -9 -71 12 -51 25 18 11
19 11 48 -5z m83 3 c16 -8 18 -13 8 -19 -15 -10 -62 9 -54 21 7 12 21 11 46
-2z m-111 -100 c93 -56 169 -105 169 -109 0 -4 -11 -10 -25 -12 -19 -4 -66 19
-195 99 -94 58 -168 109 -164 114 13 21 55 3 215 -92z m184 91 c8 -13 -5 -13
-25 0 -13 8 -13 10 2 10 9 0 20 -4 23 -10z m-182 -34 c16 -13 16 -14 -4 -19
-21 -6 -59 11 -59 25 0 13 44 8 63 -6z m93 0 c17 -13 17 -15 2 -21 -9 -4 -26
-1 -39 5 -17 10 -19 14 -8 21 19 12 22 11 45 -5z m90 0 c17 -13 17 -15 2 -21
-20 -8 -61 12 -53 26 9 13 28 11 51 -5z m49 4 c8 -13 -5 -13 -25 0 -13 8 -13
10 2 10 9 0 20 -4 23 -10z m-171 -43 c17 -13 17 -14 2 -20 -19 -8 -68 12 -60
24 8 13 38 11 58 -4z m97 3 c10 -6 19 -15 19 -20 0 -15 -42 -11 -63 4 -18 14
-18 14 0 19 10 3 19 5 21 6 2 0 12 -4 23 -9z m90 0 c10 -6 19 -15 19 -20 0
-13 -27 -13 -52 1 -17 9 -18 13 -7 20 18 11 17 11 40 -1z m64 -10 c8 -13 -5
-13 -25 0 -13 8 -13 10 2 10 9 0 20 -4 23 -10z m-179 -34 c18 -14 18 -15 1
-22 -10 -3 -30 -1 -43 7 -23 12 -24 14 -7 20 26 11 27 11 49 -5z m209 -16 c8
-14 -31 -13 -58 2 -21 11 -21 11 -2 18 20 8 49 -2 60 -20z m25 20 c13 -8 13
-10 -2 -10 -9 0 -20 5 -23 10 -8 13 5 13 25 0z m-124 -15 c18 -14 18 -14 -8
-15 -32 0 -58 9 -58 21 0 14 44 10 66 -6z m-43 -29 c9 -7 17 -16 17 -20 0 -10
-40 -7 -63 6 -21 11 -21 11 -2 19 27 10 28 10 48 -5z m232 4 c8 -13 -5 -13
-25 0 -13 8 -13 10 2 10 9 0 20 -4 23 -10z m-122 -12 c21 -11 21 -11 2 -18
-21 -8 -65 7 -65 22 0 12 38 10 63 -4z m91 -1 c17 -13 18 -14 2 -20 -14 -6
-66 17 -66 29 0 10 48 3 64 -9z m86 -17 c8 -5 12 -11 9 -14 -3 -3 -14 1 -25 9
-21 16 -8 20 16 5z m-216 -16 c9 -3 16 -10 16 -15 0 -14 -44 -10 -66 6 -18 14
-18 14 8 15 14 0 33 -3 42 -6z m106 -9 c23 -12 23 -14 7 -21 -22 -8 -71 12
-62 26 8 13 25 12 55 -5z m93 1 c34 -26 9 -36 -38 -14 -18 8 -22 14 -13 20 18
11 30 10 51 -6z m-250 -20 c9 -7 17 -16 17 -18 0 -11 -55 -16 -72 -7 -25 13
-22 27 5 32 12 2 24 5 27 5 3 1 13 -5 23 -12z m337 -1 c16 -19 1 -19 -24 0
-16 12 -17 15 -4 15 8 0 21 -7 28 -15z m-207 -19 c16 -13 16 -14 -4 -19 -24
-6 -71 12 -63 24 8 13 47 10 67 -5z m109 -29 c-14 -6 -28 -3 -47 9 -25 16 -26
19 -9 25 11 4 31 0 47 -10 26 -15 26 -16 9 -24z m112 8 c33 -20 37 -25 22 -31
-17 -7 -78 20 -98 44 -19 22 34 13 76 -13z m46 5 c8 -5 12 -11 9 -14 -3 -3
-14 1 -25 9 -21 16 -8 20 16 5z m-308 -19 c11 -12 10 -13 -4 -7 -52 18 -54 19
-35 3 26 -22 3 -31 -28 -11 -13 9 -23 19 -20 23 7 13 74 6 87 -8z m108 -6 c14
-7 37 -11 52 -8 30 6 78 -3 78 -15 0 -4 -21 -15 -46 -25 l-46 -17 -54 32 c-35
21 -49 35 -41 40 17 11 28 9 57 -7z m274 -20 c11 -8 15 -15 9 -15 -19 0 -43
12 -43 21 0 13 12 11 34 -6z m-256 -55 c29 -18 51 -35 48 -37 -3 -3 -28 9 -56
26 -40 24 -55 29 -65 21 -10 -9 -20 -7 -39 5 -31 20 -34 39 -6 30 12 -4 20 -2
20 5 0 9 7 8 23 -2 12 -9 46 -30 75 -48z m221 41 c10 -6 10 -10 1 -16 -14 -9
-60 2 -60 15 0 12 40 13 59 1z m-52 -27 c2 -6 -5 -14 -15 -16 -22 -6 -52 8
-52 23 0 14 62 7 67 -7z m148 5 c11 -17 0 -20 -21 -4 -17 13 -17 14 -2 15 9 0
20 -5 23 -11z m-35 -14 c17 -21 -11 -31 -41 -14 -23 12 -23 12 -4 20 29 11 31
11 45 -6z m-180 -5 c13 -9 13 -11 0 -20 -21 -14 -36 -12 -49 4 -18 22 21 34
49 16z m124 -15 c17 -13 17 -15 3 -21 -21 -8 -67 3 -67 15 0 8 15 15 40 20 3
0 14 -6 24 -14z m-217 -21 c24 -14 48 -22 53 -19 13 8 50 -4 50 -15 0 -6 -11
-12 -25 -16 -18 -4 -41 4 -85 31 -33 20 -60 38 -60 41 0 10 27 2 67 -22z m373
16 c8 -5 11 -12 8 -15 -4 -4 -17 0 -30 9 -24 17 -5 23 22 6z m-35 -14 c18 -13
18 -14 -3 -20 -13 -5 -30 -2 -43 7 -22 16 -20 17 22 26 3 0 14 -5 24 -13z
m-178 -12 c6 -17 -31 -23 -50 -9 -9 7 -14 15 -10 19 11 10 56 3 60 -10z m118
-8 c17 -12 15 -14 -27 -31 -43 -16 -88 -14 -88 4 0 6 72 38 91 40 3 1 14 -5
24 -13z m-121 -42 c25 -10 19 -22 -14 -29 -38 -8 -75 14 -43 26 23 10 38 10
57 3z"/>
<path d="M3870 250 c0 -5 7 -10 16 -10 8 0 12 5 9 10 -3 6 -10 10 -16 10 -5 0
-9 -4 -9 -10z"/>
<path d="M3175 523 c-49 -13 -94 -28 -99 -33 -7 -7 172 -131 295 -203 l44 -26
103 31 c56 17 101 35 100 39 -3 9 -340 220 -348 218 -3 -1 -45 -12 -95 -26z
m260 -90 c86 -53 152 -100 148 -103 -5 -4 -45 -18 -90 -30 l-82 -23 -113 73
c-62 40 -132 85 -155 99 -23 14 -43 29 -43 32 0 7 135 47 162 48 10 1 88 -43
173 -96z"/>
<path d="M2900 517 c34 -30 631 -420 635 -415 3 3 -138 100 -314 217 -287 189
-366 238 -321 198z"/>
<path d="M438 6679 c-241 -120 -438 -224 -438 -229 0 -6 198 89 439 210 385
192 477 242 444 239 -4 0 -205 -99 -445 -220z"/>
<path d="M445 6591 c-241 -120 -441 -224 -443 -230 -2 -7 139 60 314 147 366
183 571 282 581 282 8 -1 385 -711 390 -734 2 -6 -102 -53 -230 -105 -225 -91
-302 -123 -664 -270 -95 -39 -184 -73 -197 -77 -24 -6 -30 3 -110 163 -47 92
-85 160 -85 150 -1 -26 158 -337 172 -337 7 0 195 74 417 164 624 252 715 289
721 295 11 9 -395 766 -411 768 -8 1 -213 -97 -455 -216z"/>
<path d="M1110 5748 c-91 -33 -331 -124 -535 -202 l-370 -141 -42 -80 c-57
-108 -97 -204 -90 -212 4 -3 141 42 304 101 164 58 415 148 558 199 l260 92
47 135 c46 134 55 170 41 170 -5 -1 -82 -28 -173 -62z m160 32 c0 -5 -4 -10
-9 -10 -5 0 -18 -3 -28 -6 -16 -5 -16 -4 1 10 23 18 36 20 36 6z m-74 -28 c-7
-12 -46 -23 -46 -13 0 9 43 31 49 25 1 -1 0 -7 -3 -12z m55 -21 c-9 -17 -40
-36 -46 -29 -10 11 18 48 35 48 17 0 19 -3 11 -19z m-131 -11 c-19 -12 -30
-12 -30 -1 0 10 31 20 40 14 2 -2 -2 -8 -10 -13z m70 1 c0 -12 -29 -41 -41
-41 -16 0 -10 29 9 39 22 13 32 14 32 2z m-154 -26 c-11 -8 -22 -12 -25 -9 -6
6 19 24 34 24 6 -1 1 -7 -9 -15z m84 -2 c-1 -24 -50 -53 -50 -30 0 7 5 18 12
25 13 13 38 16 38 5z m105 -52 c-9 -28 -20 -51 -25 -51 -5 0 -15 -3 -24 -6
-13 -5 -13 1 2 47 11 32 26 55 38 59 10 4 21 6 23 4 1 -1 -5 -25 -14 -53z
m-255 29 c-8 -5 -22 -10 -30 -10 -13 0 -13 1 0 10 8 5 22 10 30 10 13 0 13 -1
0 -10z m80 3 c-1 -19 -19 -34 -59 -48 -24 -8 -46 -14 -48 -12 -11 12 13 35 50
49 49 19 57 21 57 11z m120 -9 c0 -16 -23 -44 -35 -44 -21 0 -19 27 3 39 19
12 32 14 32 5z m-260 -9 c0 -2 -9 -9 -20 -15 -12 -6 -20 -7 -20 -1 0 5 8 12
18 14 9 3 18 5 20 6 1 0 2 -1 2 -4z m190 -19 c0 -18 -27 -46 -45 -46 -21 0 -6
40 19 50 11 5 22 9 24 9 1 1 2 -5 2 -13z m-265 -16 c-3 -5 -14 -10 -23 -10
-15 0 -15 2 -2 10 20 13 33 13 25 0z m88 -6 c-5 -15 -52 -39 -60 -31 -8 8 9
36 25 40 33 9 41 7 35 -9z m103 -19 c-16 -63 -25 -73 -82 -94 -31 -12 -59 -20
-61 -17 -3 3 8 16 23 30 36 32 70 66 89 89 22 25 38 21 31 -8z m-260 0 c-11
-8 -22 -12 -25 -9 -6 6 19 24 34 24 6 -1 1 -7 -9 -15z m384 5 c0 -5 -10 -20
-22 -32 -22 -22 -23 -22 -26 -4 -3 11 4 26 14 33 21 16 34 17 34 3z m-306 -14
c-4 -11 -45 -36 -59 -36 -10 0 -4 19 11 34 19 20 55 21 48 2z m106 -3 c0 -16
-17 -32 -43 -42 -29 -11 -34 -4 -14 21 17 22 57 36 57 21z m-240 -7 c0 -2 -7
-6 -15 -10 -8 -3 -15 -1 -15 4 0 6 7 10 15 10 8 0 15 -2 15 -4z m370 -5 c0
-12 -29 -41 -41 -41 -13 0 -11 24 3 38 14 14 38 16 38 3z m120 -6 c0 -17 -48
-70 -56 -62 -3 2 -2 17 2 32 5 21 24 37 52 44 1 1 2 -6 2 -14z m-440 -10 c0
-14 -48 -41 -56 -32 -2 2 3 13 12 25 17 25 44 29 44 7z m103 -10 c-3 -9 -18
-22 -34 -31 -25 -13 -29 -13 -29 0 0 16 37 46 57 46 7 0 10 -7 6 -15z m-243
-5 c-20 -13 -33 -13 -25 0 3 6 14 10 23 10 15 0 15 -2 2 -10z m60 -19 c-6 -12
-15 -21 -20 -21 -4 0 -16 -3 -24 -6 -27 -10 -7 25 23 40 32 17 36 14 21 -13z
m441 -3 c-7 -18 -25 -31 -69 -46 -32 -12 -65 -22 -73 -22 -22 0 2 16 54 35 26
10 47 24 47 32 0 12 40 35 48 28 1 -1 -2 -13 -7 -27z m-556 2 c-3 -5 -14 -10
-23 -10 -15 0 -15 2 -2 10 20 13 33 13 25 0z m219 -5 c-7 -16 -35 -35 -53 -35
-17 0 0 31 23 40 31 13 36 12 30 -5z m270 -5 c-15 -15 -154 -60 -154 -50 0 4
33 20 73 33 81 29 96 32 81 17z m-544 -5 c0 -2 -10 -9 -22 -15 -22 -11 -22
-10 -4 4 21 17 26 19 26 11z m91 -14 c-13 -23 -51 -35 -51 -16 0 15 27 34 48
35 9 0 10 -5 3 -19z m269 12 c-1 -18 -43 -53 -64 -53 -12 0 18 49 33 53 26 7
31 7 31 0z m-166 -18 c-6 -14 -35 -35 -48 -35 -16 0 -3 32 17 40 32 13 37 12
31 -5z m-269 -15 c-3 -5 -11 -10 -16 -10 -6 0 -7 5 -4 10 3 6 11 10 16 10 6 0
7 -4 4 -10z m95 1 c0 -10 -19 -26 -42 -34 -22 -8 -23 6 -2 27 17 17 44 22 44
7z m263 -6 c-7 -19 -63 -50 -63 -35 0 5 9 19 20 30 24 24 52 27 43 5z m-163
-4 c0 -11 -39 -41 -52 -41 -13 0 -9 18 8 34 17 18 44 21 44 7z m-250 -11 c-8
-5 -19 -10 -25 -10 -5 0 -3 5 5 10 8 5 20 10 25 10 6 0 3 -5 -5 -10z m80 1 c0
-15 -30 -41 -47 -41 -21 0 -11 23 18 37 29 15 29 15 29 4z m410 0 c0 -5 -13
-14 -30 -20 -38 -13 -40 1 -2 16 15 6 28 11 30 12 1 1 2 -3 2 -8z m76 -9 c-3
-6 -19 -15 -36 -20 -24 -9 -30 -8 -30 4 0 7 7 15 15 15 28 3 33 4 41 12 10 9
18 1 10 -11z m-236 -11 c-10 -20 -47 -37 -57 -28 -8 8 35 47 52 47 12 0 13 -4
5 -19z m-380 4 c0 -2 -10 -9 -22 -15 -22 -11 -22 -10 -4 4 21 17 26 19 26 11z
m220 -2 c0 -16 -16 -30 -37 -37 -27 -9 -30 5 -7 28 16 17 44 22 44 9z m-186
-40 c-23 -17 -34 -17 -34 2 0 19 43 38 49 22 2 -6 -4 -16 -15 -24z m276 22 c0
-15 -47 -51 -56 -43 -13 13 20 48 54 57 1 1 2 -6 2 -14z m-169 -23 c-10 -19
-51 -37 -51 -23 0 12 24 38 40 43 21 7 23 3 11 -20z m305 12 c-3 -9 -6 -20 -6
-25 0 -9 -50 -33 -56 -26 -2 1 6 17 16 35 20 33 58 46 46 16z m74 2 c-21 -19
-60 -30 -60 -16 0 11 34 28 60 29 13 1 13 -1 0 -13z m-580 0 c0 -2 -13 -9 -30
-15 -16 -5 -30 -6 -30 -1 0 5 8 11 18 13 24 7 42 8 42 3z m40 -16 c0 -14 -49
-44 -58 -35 -4 3 4 15 17 26 26 21 41 24 41 9z m246 -18 c-6 -17 -44 -37 -53
-28 -8 8 10 34 30 43 27 13 31 10 23 -15z m143 -5 c-6 -14 -24 -30 -38 -36
-172 -62 -345 -120 -348 -117 -12 12 22 46 59 60 151 57 333 123 336 121 1 -1
-3 -14 -9 -28z m-301 1 c-8 -11 -24 -25 -35 -29 -17 -6 -20 -4 -15 13 2 11 14
24 26 28 34 14 39 11 24 -12z m-167 -17 c-11 -19 -51 -36 -51 -21 0 14 30 40
46 40 11 0 12 -4 5 -19z m259 12 c0 -14 -15 -30 -37 -42 -19 -10 -23 -9 -23 3
0 8 10 22 22 30 24 17 38 20 38 9z m-160 -12 c0 -15 -30 -41 -46 -41 -11 0
-12 4 -4 19 13 26 50 41 50 22z m80 -30 c-10 -20 -47 -37 -57 -28 -8 8 35 47
52 47 12 0 13 -4 5 -19z m-159 -8 c-9 -18 -101 -58 -101 -45 1 16 18 32 50 46
48 21 63 20 51 -1z m83 -18 c-6 -14 -35 -35 -48 -35 -11 0 -6 19 10 34 20 21
45 21 38 1z m-75 -28 c-7 -15 -29 -29 -62 -41 -29 -10 -59 -21 -67 -24 -13 -5
-13 -3 0 17 12 18 80 53 137 70 2 1 -2 -9 -8 -22z m30 -50 c-10 -22 -46 -43
-56 -33 -9 9 12 38 36 50 32 17 35 15 20 -17z m-93 -44 c-15 -13 -31 -23 -36
-23 -17 0 11 48 34 58 32 14 34 -8 2 -35z m-46 9 c0 -12 -39 -52 -50 -52 -16
0 -11 19 10 40 21 21 40 26 40 12z"/>
<path d="M492 5232 l-183 -67 -40 -89 c-21 -48 -39 -94 -39 -101 0 -12 75 10
351 104 34 11 40 19 78 112 22 54 41 102 41 104 0 10 -31 1 -208 -63z m150
-42 l-35 -89 -179 -60 c-98 -33 -178 -56 -178 -51 0 5 16 44 35 87 l36 78 172
62 c95 34 175 62 179 62 3 1 -10 -39 -30 -89z"/>
<path d="M540 4186 c0 -2 64 -51 143 -109 430 -315 566 -414 697 -508 171
-123 170 -123 170 -111 0 5 -120 97 -267 204 -148 107 -370 270 -496 361 -202
148 -247 178 -247 163z"/>
<path d="M432 4069 c-46 -61 -81 -113 -79 -116 3 -2 40 43 84 101 43 58 80
105 83 106 3 0 234 -167 514 -370 280 -204 514 -370 519 -370 13 0 27 -11
-143 112 -313 226 -817 593 -851 620 -20 15 -38 28 -40 27 -2 0 -41 -50 -87
-110z"/>
<path d="M447 4023 c-322 -419 -447 -588 -447 -603 0 -17 18 -29 290 -197 501
-309 739 -453 747 -453 6 0 77 91 159 203 81 111 183 249 226 306 43 57 78
109 78 115 -1 6 -58 52 -128 102 -70 50 -290 208 -489 352 -199 144 -363 262
-365 262 -2 0 -34 -39 -71 -87z m263 -69 c91 -66 301 -218 468 -339 166 -121
301 -224 298 -230 -2 -6 -87 -123 -188 -261 -101 -137 -197 -268 -213 -292
-18 -25 -36 -41 -45 -39 -15 4 -980 594 -1019 623 -2 2 84 117 190 256 107
139 221 288 253 331 40 52 65 77 75 74 9 -2 90 -58 181 -123z"/>
<path d="M4535 3424 c-187 -12 -351 -23 -364 -23 l-23 -1 6 -177 c4 -98 8
-218 11 -268 3 -49 10 -243 16 -430 6 -187 13 -342 15 -344 5 -6 581 20 659
30 49 6 15 7 -115 3 -259 -6 -470 -14 -501 -19 l-27 -4 -6 92 c-12 193 -39
1087 -33 1094 6 5 627 50 725 53 12 0 22 5 22 10 0 6 -10 9 -22 9 -13 -1 -176
-12 -363 -25z"/>
<path d="M4068 3415 c-3 -6 -2 -109 3 -230 5 -121 13 -335 19 -475 18 -455 22
-525 32 -535 7 -7 8 22 4 85 -3 52 -8 181 -11 285 -3 105 -8 213 -10 240 -2
28 -7 142 -11 255 -8 259 -17 388 -26 375z"/>
<path d="M0 3161 c0 -5 7 -11 15 -15 21 -8 19 -27 -2 -20 -13 4 -11 0 5 -12
12 -9 22 -25 22 -36 0 -16 -3 -17 -20 -8 -12 7 -20 7 -20 1 0 -5 9 -12 19 -16
11 -3 22 -14 25 -23 12 -42 17 -92 10 -92 -23 1 -38 22 -44 62 l-7 43 -2 -55
c0 -30 4 -71 9 -91 10 -34 24 -44 447 -279 241 -134 473 -263 516 -287 85 -47
101 -52 93 -25 -3 9 -22 76 -42 147 -21 72 -41 135 -45 141 -5 6 -57 39 -116
74 -60 34 -184 108 -278 163 -216 126 -301 176 -542 313 -24 14 -43 20 -43 15z
m86 -55 c10 -8 16 -17 13 -20 -3 -4 -17 2 -30 13 -27 23 -13 28 17 7z m-2 -32
c16 -6 23 -44 8 -44 -12 0 -32 23 -32 37 0 15 2 15 24 7z m66 -9 c7 -8 8 -15
2 -15 -5 0 -15 7 -22 15 -7 8 -8 15 -2 15 5 0 15 -7 22 -15z m10 -46 c12 -22
13 -29 1 -29 -14 0 -41 30 -41 45 0 19 28 8 40 -16z m60 11 c8 -5 12 -11 9
-14 -3 -3 -14 1 -25 9 -21 16 -8 20 16 5z m-126 -16 c9 -3 16 -17 16 -30 0
-22 -3 -23 -20 -14 -11 6 -20 20 -20 30 0 22 1 23 24 14z m146 -26 c24 -14 40
-31 40 -41 0 -10 -3 -17 -7 -15 -63 30 -83 44 -83 60 0 23 3 23 50 -4z m50 2
c8 -5 12 -11 9 -14 -3 -3 -14 1 -25 9 -21 16 -8 20 16 5z m-115 -41 c4 -11 5
-23 2 -26 -8 -8 -47 35 -47 52 0 23 37 1 45 -26z m181 -7 c-4 -3 -14 2 -24 12
-16 18 -16 18 6 6 13 -6 21 -14 18 -18z m-236 -23 c0 -15 -5 -19 -16 -15 -9 3
-18 6 -20 6 -2 0 -4 11 -4 25 0 23 2 24 20 15 11 -6 20 -20 20 -31z m128 -21
c12 -27 26 -48 31 -48 15 0 41 -30 41 -46 0 -12 -7 -11 -37 5 -62 32 -72 44
-82 94 -7 42 -7 48 8 45 9 -2 26 -24 39 -50z m104 18 c19 -28 7 -37 -22 -16
-37 26 -43 57 -7 39 12 -7 25 -17 29 -23z m-284 -30 c2 -14 -1 -26 -7 -26 -14
0 -41 41 -41 63 0 18 2 18 23 5 12 -9 23 -27 25 -42z m352 23 c0 -4 -7 -6 -15
-3 -8 4 -15 10 -15 15 0 4 7 6 15 3 8 -4 15 -10 15 -15z m-246 -5 c18 -17 21
-44 7 -44 -15 0 -41 30 -41 46 0 18 15 18 34 -2z m135 -13 c14 -10 22 -25 19
-37 -3 -17 -6 -17 -31 8 -43 43 -34 65 12 29z m-179 -32 c0 -9 20 -27 45 -40
25 -13 47 -29 50 -36 7 -19 1 -17 -70 24 -56 32 -65 41 -65 65 0 26 2 27 20
16 11 -7 20 -20 20 -29z m281 31 c10 -6 19 -20 19 -31 0 -18 -1 -19 -25 -3
-14 9 -25 23 -25 30 0 17 5 17 31 4z m59 -5 c7 -8 8 -15 2 -15 -5 0 -15 7 -22
15 -7 8 -8 15 -2 15 5 0 15 -7 22 -15z m-66 -62 c10 -24 1 -26 -28 -8 -14 10
-26 26 -26 36 0 18 2 18 24 4 13 -9 27 -23 30 -32z m-109 -45 c7 -7 3 -8 -12
-3 -31 9 -29 -3 2 -15 14 -5 25 -17 25 -25 0 -14 -4 -14 -31 2 -18 11 -28 24
-26 34 3 10 -13 25 -49 44 -30 16 -54 33 -54 38 0 9 127 -57 145 -75z m186 72
c10 -6 19 -20 19 -31 0 -18 -1 -19 -25 -3 -14 9 -25 23 -25 30 0 17 5 17 31 4z
m49 0 c8 -5 12 -11 9 -14 -3 -3 -14 1 -25 9 -21 16 -8 20 16 5z m-140 -81 c0
-20 -2 -20 -22 -7 -11 8 -25 24 -29 36 -8 22 -8 22 21 7 19 -10 30 -23 30 -36z
m70 31 c32 -32 24 -54 -11 -27 -19 15 -32 47 -19 47 6 0 19 -9 30 -20z m92 8
c19 -16 31 -48 18 -48 -6 0 -19 9 -30 20 -32 32 -23 55 12 28z m64 -16 c-4 -3
-14 2 -24 12 -16 18 -16 18 6 6 13 -6 21 -14 18 -18z m-88 -28 c21 -15 31 -44
14 -44 -13 0 -39 24 -45 43 -8 21 2 22 31 1z m137 6 c3 -5 2 -10 -4 -10 -5 0
-13 5 -16 10 -3 6 -2 10 4 10 5 0 13 -4 16 -10z m-221 -13 c10 -7 17 -21 15
-30 -4 -16 -6 -16 -26 -2 -13 9 -23 23 -23 31 0 18 11 18 34 1z m190 -3 c16
-15 21 -34 10 -34 -16 0 -44 23 -44 35 0 19 15 19 34 -1z m-271 -8 c25 -19 21
-27 -8 -14 -14 6 -25 15 -25 20 0 12 12 9 33 -6z m358 -13 c13 -17 13 -17 -6
-3 -11 8 -22 16 -24 17 -2 2 0 3 6 3 6 0 17 -8 24 -17z m-104 -29 c8 -22 -2
-27 -26 -12 -12 7 -21 21 -21 31 0 15 3 16 21 7 11 -6 23 -18 26 -26z m-246 7
c28 -23 20 -38 -10 -19 -22 13 -36 38 -22 38 5 0 19 -9 32 -19z m143 6 c10 -7
17 -21 15 -30 -4 -16 -6 -16 -26 -2 -13 9 -23 23 -23 31 0 18 11 18 34 1z
m190 -3 c16 -15 21 -34 10 -34 -16 0 -44 23 -44 35 0 19 15 19 34 -1z m-243
-47 c5 -20 4 -27 -6 -27 -18 0 -45 39 -45 63 0 18 2 18 22 5 12 -8 25 -27 29
-41z m319 31 c0 -6 -6 -5 -15 2 -8 7 -15 14 -15 16 0 2 7 1 15 -2 8 -4 15 -11
15 -16z m-93 -34 c8 -22 -2 -27 -26 -14 -12 6 -21 20 -21 31 0 17 3 18 21 9
11 -6 23 -18 26 -26z m96 -5 c3 -11 1 -19 -4 -19 -12 0 -49 37 -49 50 0 17 48
-11 53 -31z m-199 18 c10 -7 17 -21 15 -30 -4 -16 -6 -16 -26 -2 -13 9 -23 23
-23 31 0 18 11 18 34 1z m241 -5 c-3 -3 -11 0 -18 7 -9 10 -8 11 6 5 10 -3 15
-9 12 -12z m13 -217 c6 -14 7 -25 2 -25 -16 0 -335 181 -347 198 -7 8 -13 24
-13 33 0 26 342 -171 358 -206z m-83 166 c8 -20 0 -24 -24 -11 -12 6 -21 20
-21 30 0 18 3 19 20 8 11 -7 22 -19 25 -27z m-101 16 c10 -7 17 -21 15 -30 -4
-16 -6 -16 -26 -2 -13 9 -23 23 -23 31 0 18 11 18 34 1z m184 1 c15 -15 16
-41 0 -36 -6 2 -18 14 -26 26 -12 19 -12 22 0 22 8 0 19 -5 26 -12z m47 2 c3
-5 2 -10 -4 -10 -5 0 -13 5 -16 10 -3 6 -2 10 4 10 5 0 13 -4 16 -10z m-75
-40 c32 -32 23 -55 -12 -27 -19 15 -31 47 -18 47 6 0 19 -9 30 -20z m110 -26
c0 -8 -3 -14 -7 -14 -12 0 -43 33 -43 47 0 11 5 10 25 -3 14 -9 25 -23 25 -30z
m25 34 c14 -6 25 -15 25 -20 0 -5 -13 -2 -30 7 -45 23 -41 34 5 13z m-221 -11
c10 -7 17 -21 15 -30 -4 -16 -6 -16 -26 -2 -13 9 -23 23 -23 31 0 18 11 18 34
1z m147 -30 c19 -15 32 -47 19 -47 -13 0 -50 37 -50 50 0 13 11 12 31 -3z
m110 -19 c14 -25 6 -32 -20 -18 -25 13 -30 53 -6 44 9 -4 20 -15 26 -26z
m-187 6 c9 -8 16 -22 16 -31 0 -14 -2 -14 -22 -1 -24 16 -37 48 -19 48 5 0 17
-7 25 -16z m161 -35 c36 -22 65 -59 45 -59 -20 0 -90 50 -90 65 0 19 2 19 45
-6z m-91 -5 c9 -8 16 -22 16 -31 0 -14 -2 -14 -22 -1 -24 16 -37 48 -19 48 5
0 17 -7 25 -16z m158 -104 c4 -11 4 -20 0 -20 -20 0 -116 68 -123 87 -8 21 -4
20 54 -12 33 -19 65 -43 69 -55z m-134 33 c11 -10 23 -29 27 -41 6 -21 5 -23
-12 -13 -31 16 -64 71 -44 71 5 0 18 -8 29 -17z m87 -64 c4 -11 5 -23 2 -26
-8 -8 -47 35 -47 52 0 23 37 1 45 -26z m47 -11 c9 -7 19 -24 23 -38 7 -23 7
-24 -15 -9 -23 15 -46 59 -32 59 5 0 15 -6 24 -12z"/>
<path d="M473 2558 c3 -13 14 -61 24 -107 14 -66 23 -87 43 -101 52 -36 329
-175 335 -168 4 4 -3 51 -17 105 l-24 98 -175 97 c-95 54 -178 98 -183 98 -4
0 -6 -10 -3 -22z m132 -63 c135 -74 210 -116 213 -119 8 -9 49 -176 42 -176
-13 0 -313 159 -325 172 -10 11 -45 154 -45 182 0 4 15 -1 33 -12 17 -11 55
-32 82 -47z"/>
<path d="M354 1518 c-60 -67 -164 -182 -231 -256 -102 -112 -122 -139 -120
-163 1 -16 3 -29 4 -29 6 0 504 562 501 566 -3 2 -36 -31 -74 -74 -246 -276
-417 -462 -421 -458 -3 3 96 116 218 253 251 277 255 283 242 283 -5 0 -59
-55 -119 -122z"/>
<path d="M398 1443 c-286 -316 -398 -444 -398 -456 0 -7 15 4 32 23 17 19 135
151 261 293 127 141 234 257 239 257 4 0 132 -113 283 -250 l274 -251 -72 -97
c-68 -92 -434 -569 -588 -767 -38 -49 -74 -90 -78 -90 -5 0 -84 71 -176 158
-91 88 -169 156 -173 152 -4 -3 20 -32 53 -63 200 -190 290 -272 299 -272 6 1
63 69 126 151 63 83 166 216 228 297 336 438 405 534 391 546 -8 7 -117 107
-244 221 -126 115 -251 228 -276 252 l-46 44 -135 -148z"/>
<path d="M2275 214 c-83 -175 -96 -206 -91 -211 2 -3 11 8 19 24 l15 28 11
-28 c12 -31 26 -35 36 -9 6 16 7 16 16 -1 6 -9 19 -17 29 -17 15 0 20 7 20 28
1 15 9 43 20 62 15 29 20 32 25 17 4 -9 0 -35 -9 -57 -19 -47 -19 -50 -7 -50
5 0 12 14 16 30 8 35 25 31 25 -6 0 -14 6 -24 14 -24 9 0 0 38 -35 137 -26 75
-52 140 -58 146 -6 6 -23 -19 -46 -69z m55 8 c0 -15 -4 -33 -9 -40 -11 -18
-24 32 -16 59 9 26 25 14 25 -19z m-30 -70 c0 -37 -15 -60 -24 -37 -8 21 -8
60 0 68 12 12 24 -4 24 -31z m34 -61 c-15 -34 -31 -61 -35 -61 -17 0 -9 45 17
100 21 45 27 52 35 38 6 -12 1 -34 -17 -77z m-69 -33 c-4 -15 -10 -28 -15 -28
-15 0 -20 49 -8 75 l12 27 8 -23 c5 -13 6 -35 3 -51z"/>
<path d="M2026 139 c-37 -72 -65 -134 -62 -137 8 -8 8 -9 76 128 l63 125 33
-88 c32 -84 33 -90 18 -118 -8 -17 -13 -36 -11 -42 5 -15 37 46 37 71 0 25
-65 185 -77 189 -5 2 -40 -56 -77 -128z"/>
</g>
</svg>
