<svg xmlns="http://www.w3.org/2000/svg" xmlns:xlink="http://www.w3.org/1999/xlink" width="1344" zoomAndPan="magnify" viewBox="0 0 1008 1007.999987" height="1344" preserveAspectRatio="xMidYMid meet" version="1.0"><metadata><ContainsAiGeneratedContent>Yes</ContainsAiGeneratedContent></metadata><defs><filter x="0%" y="0%" width="100%" height="100%" id="55baa9d516"><feColorMatrix values="0 0 0 0 1 0 0 0 0 1 0 0 0 0 1 0 0 0 1 0" color-interpolation-filters="sRGB"/></filter><mask id="73e623054a"><g filter="url(#55baa9d516)"><rect x="-100.8" width="1209.6" fill="#000000" y="-100.799999" height="1209.599984" fill-opacity="0.12"/></g></mask><clipPath id="2f4dbfd817"><path d="M 2.183594 4 L 8 4 L 8 1007.933594 L 2.183594 1007.933594 Z M 2.183594 4 " clip-rule="nonzero"/></clipPath><clipPath id="3dbcf1acdf"><path d="M 104 4 L 110 4 L 110 1007.933594 L 104 1007.933594 Z M 104 4 " clip-rule="nonzero"/></clipPath><clipPath id="d9f1d25ef2"><path d="M 206 4 L 212 4 L 212 1007.933594 L 206 1007.933594 Z M 206 4 " clip-rule="nonzero"/></clipPath><clipPath id="e71232a91e"><path d="M 308 4 L 314 4 L 314 1007.933594 L 308 1007.933594 Z M 308 4 " clip-rule="nonzero"/></clipPath><clipPath id="73e8ad13e9"><path d="M 410 4 L 416 4 L 416 1007.933594 L 410 1007.933594 Z M 410 4 " clip-rule="nonzero"/></clipPath><clipPath id="4779f04b1b"><path d="M 512 4 L 518 4 L 518 1007.933594 L 512 1007.933594 Z M 512 4 " clip-rule="nonzero"/></clipPath><clipPath id="e75ae03670"><path d="M 614 4 L 620 4 L 620 1007.933594 L 614 1007.933594 Z M 614 4 " clip-rule="nonzero"/></clipPath><clipPath id="e51832ce83"><path d="M 716 4 L 722 4 L 722 1007.933594 L 716 1007.933594 Z M 716 4 " clip-rule="nonzero"/></clipPath><clipPath id="22df6fe49c"><path d="M 818 4 L 824 4 L 824 1007.933594 L 818 1007.933594 Z M 818 4 " clip-rule="nonzero"/></clipPath><clipPath id="4e97fe1fe0"><path d="M 920 4 L 926 4 L 926 1007.933594 L 920 1007.933594 Z M 920 4 " clip-rule="nonzero"/></clipPath><clipPath id="1e519e760e"><path d="M 4 2.183594 L 1005.683594 2.183594 L 1005.683594 8 L 4 8 Z M 4 2.183594 " clip-rule="nonzero"/></clipPath><clipPath id="59eb6aa70f"><path d="M 4 104 L 1005.683594 104 L 1005.683594 110 L 4 110 Z M 4 104 " clip-rule="nonzero"/></clipPath><clipPath id="a799583d0d"><path d="M 4 206 L 1005.683594 206 L 1005.683594 212 L 4 212 Z M 4 206 " clip-rule="nonzero"/></clipPath><clipPath id="872e03e768"><path d="M 4 308 L 1005.683594 308 L 1005.683594 314 L 4 314 Z M 4 308 " clip-rule="nonzero"/></clipPath><clipPath id="f0b6f430e0"><path d="M 4 410 L 1005.683594 410 L 1005.683594 416 L 4 416 Z M 4 410 " clip-rule="nonzero"/></clipPath><clipPath id="8e0ec997fd"><path d="M 4 512 L 1005.683594 512 L 1005.683594 518 L 4 518 Z M 4 512 " clip-rule="nonzero"/></clipPath><clipPath id="bfab9eef07"><path d="M 4 614 L 1005.683594 614 L 1005.683594 620 L 4 620 Z M 4 614 " clip-rule="nonzero"/></clipPath><clipPath id="af0db487bd"><path d="M 4 716 L 1005.683594 716 L 1005.683594 722 L 4 722 Z M 4 716 " clip-rule="nonzero"/></clipPath><clipPath id="11a5b1ccc7"><path d="M 4 818 L 1005.683594 818 L 1005.683594 824 L 4 824 Z M 4 818 " clip-rule="nonzero"/></clipPath><clipPath id="05493f524e"><path d="M 4 920 L 1005.683594 920 L 1005.683594 926 L 4 926 Z M 4 920 " clip-rule="nonzero"/></clipPath><clipPath id="fd42769da7"><rect x="0" width="1008" y="0" height="1008"/></clipPath></defs><rect x="-100.8" width="1209.6" fill="#181d27" y="-100.799999" height="1209.599984" fill-opacity="1"/><g mask="url(#73e623054a)"><g transform="matrix(1, 0, 0, 1, 0, 0.000000000000063788)"><g clip-path="url(#fd42769da7)"><g clip-path="url(#2f4dbfd817)"><path fill="#ffffff" d="M 2.148438 4.847656 L 2.148438 1024.703125 L 7.28125 1024.703125 L 7.28125 4.847656 Z M 2.148438 4.847656 " fill-opacity="1" fill-rule="nonzero"/></g><g clip-path="url(#3dbcf1acdf)"><path fill="#ffffff" d="M 104.128906 4.847656 L 104.128906 1024.703125 L 109.261719 1024.703125 L 109.261719 4.847656 Z M 104.128906 4.847656 " fill-opacity="1" fill-rule="nonzero"/></g><g clip-path="url(#d9f1d25ef2)"><path fill="#ffffff" d="M 206.183594 4.847656 L 206.183594 1024.703125 L 211.238281 1024.703125 L 211.238281 4.847656 Z M 206.183594 4.847656 " fill-opacity="1" fill-rule="nonzero"/></g><g clip-path="url(#e71232a91e)"><path fill="#ffffff" d="M 308.160156 4.847656 L 308.160156 1024.703125 L 313.292969 1024.703125 L 313.292969 4.847656 Z M 308.160156 4.847656 " fill-opacity="1" fill-rule="nonzero"/></g><g clip-path="url(#73e8ad13e9)"><path fill="#ffffff" d="M 410.136719 4.847656 L 410.136719 1024.703125 L 415.269531 1024.703125 L 415.269531 4.847656 Z M 410.136719 4.847656 " fill-opacity="1" fill-rule="nonzero"/></g><g clip-path="url(#4779f04b1b)"><path fill="#ffffff" d="M 512.117188 4.847656 L 512.117188 1024.703125 L 517.25 1024.703125 L 517.25 4.847656 Z M 512.117188 4.847656 " fill-opacity="1" fill-rule="nonzero"/></g><g clip-path="url(#e75ae03670)"><path fill="#ffffff" d="M 614.171875 4.847656 L 614.171875 1024.703125 L 619.226562 1024.703125 L 619.226562 4.847656 Z M 614.171875 4.847656 " fill-opacity="1" fill-rule="nonzero"/></g><g clip-path="url(#e51832ce83)"><path fill="#ffffff" d="M 716.148438 4.847656 L 716.148438 1024.703125 L 721.207031 1024.703125 L 721.207031 4.847656 Z M 716.148438 4.847656 " fill-opacity="1" fill-rule="nonzero"/></g><g clip-path="url(#22df6fe49c)"><path fill="#ffffff" d="M 818.125 4.847656 L 818.125 1024.703125 L 823.257812 1024.703125 L 823.257812 4.847656 Z M 818.125 4.847656 " fill-opacity="1" fill-rule="nonzero"/></g><g clip-path="url(#4e97fe1fe0)"><path fill="#ffffff" d="M 920.105469 4.847656 L 920.105469 1024.703125 L 925.238281 1024.703125 L 925.238281 4.847656 Z M 920.105469 4.847656 " fill-opacity="1" fill-rule="nonzero"/></g><g clip-path="url(#1e519e760e)"><path fill="#ffffff" d="M 4.792969 2.203125 L 4.792969 7.335938 L 1024.648438 7.335938 L 1024.648438 2.203125 Z M 4.792969 2.203125 " fill-opacity="1" fill-rule="nonzero"/></g><g clip-path="url(#59eb6aa70f)"><path fill="#ffffff" d="M 4.792969 104.183594 L 4.792969 109.316406 L 1024.648438 109.316406 L 1024.648438 104.183594 Z M 4.792969 104.183594 " fill-opacity="1" fill-rule="nonzero"/></g><g clip-path="url(#a799583d0d)"><path fill="#ffffff" d="M 4.792969 206.160156 L 4.792969 211.292969 L 1024.648438 211.292969 L 1024.648438 206.160156 Z M 4.792969 206.160156 " fill-opacity="1" fill-rule="nonzero"/></g><g clip-path="url(#872e03e768)"><path fill="#ffffff" d="M 4.792969 308.140625 L 4.792969 313.273438 L 1024.648438 313.273438 L 1024.648438 308.140625 Z M 4.792969 308.140625 " fill-opacity="1" fill-rule="nonzero"/></g><g clip-path="url(#f0b6f430e0)"><path fill="#ffffff" d="M 4.792969 410.191406 L 4.792969 415.25 L 1024.648438 415.25 L 1024.648438 410.191406 Z M 4.792969 410.191406 " fill-opacity="1" fill-rule="nonzero"/></g><g clip-path="url(#8e0ec997fd)"><path fill="#ffffff" d="M 4.792969 512.171875 L 4.792969 517.304688 L 1024.648438 517.304688 L 1024.648438 512.171875 Z M 4.792969 512.171875 " fill-opacity="1" fill-rule="nonzero"/></g><g clip-path="url(#bfab9eef07)"><path fill="#ffffff" d="M 4.792969 614.148438 L 4.792969 619.28125 L 1024.648438 619.28125 L 1024.648438 614.148438 Z M 4.792969 614.148438 " fill-opacity="1" fill-rule="nonzero"/></g><g clip-path="url(#af0db487bd)"><path fill="#ffffff" d="M 4.792969 716.128906 L 4.792969 721.261719 L 1024.648438 721.261719 L 1024.648438 716.128906 Z M 4.792969 716.128906 " fill-opacity="1" fill-rule="nonzero"/></g><g clip-path="url(#11a5b1ccc7)"><path fill="#ffffff" d="M 4.792969 818.179688 L 4.792969 823.238281 L 1024.648438 823.238281 L 1024.648438 818.179688 Z M 4.792969 818.179688 " fill-opacity="1" fill-rule="nonzero"/></g><g clip-path="url(#05493f524e)"><path fill="#ffffff" d="M 4.792969 920.160156 L 4.792969 925.214844 L 1024.648438 925.214844 L 1024.648438 920.160156 Z M 4.792969 920.160156 " fill-opacity="1" fill-rule="nonzero"/></g></g></g></g></svg>