<svg xmlns="http://www.w3.org/2000/svg" xmlns:xlink="http://www.w3.org/1999/xlink" width="1344" zoomAndPan="magnify" viewBox="0 0 1008 1007.999987" height="1344" preserveAspectRatio="xMidYMid meet" version="1.0"><metadata><ContainsAiGeneratedContent>Yes</ContainsAiGeneratedContent></metadata><defs><clipPath id="9b58479238"><path d="M 0 0 L 488 0 L 488 77.585938 L 0 77.585938 Z M 0 0 " clip-rule="nonzero"/></clipPath><clipPath id="dce678e296"><path d="M 456 0 L 470 0 L 470 77.585938 L 456 77.585938 Z M 456 0 " clip-rule="nonzero"/></clipPath><clipPath id="4865c4a745"><path d="M 427 0 L 442 0 L 442 77.585938 L 427 77.585938 Z M 427 0 " clip-rule="nonzero"/></clipPath><clipPath id="a550433ba7"><path d="M 0 297.058594 L 286.179688 297.058594 L 286.179688 369.808594 L 0 369.808594 Z M 0 297.058594 " clip-rule="nonzero"/></clipPath><clipPath id="f98cae6a78"><path d="M 23 297.058594 L 44 297.058594 L 44 369.808594 L 23 369.808594 Z M 23 297.058594 " clip-rule="nonzero"/></clipPath><clipPath id="561ccbb948"><path d="M 218 297.058594 L 238 297.058594 L 238 369.808594 L 218 369.808594 Z M 218 297.058594 " clip-rule="nonzero"/></clipPath><clipPath id="cf71bb56a8"><path d="M 0 92.976562 L 286.179688 92.976562 L 286.179688 180.726562 L 0 180.726562 Z M 0 92.976562 " clip-rule="nonzero"/></clipPath><clipPath id="232b54759f"><path d="M 23 92.976562 L 44 92.976562 L 44 180.726562 L 23 180.726562 Z M 23 92.976562 " clip-rule="nonzero"/></clipPath><clipPath id="253cf3e84b"><path d="M 218 92.976562 L 238 92.976562 L 238 180.726562 L 218 180.726562 Z M 218 92.976562 " clip-rule="nonzero"/></clipPath><clipPath id="9cd2367b2d"><path d="M 0 190.152344 L 284.679688 190.152344 L 284.679688 286.902344 L 0 286.902344 Z M 0 190.152344 " clip-rule="nonzero"/></clipPath><clipPath id="9ae5ec2b2b"><path d="M 23 190.152344 L 43 190.152344 L 43 286.902344 L 23 286.902344 Z M 23 190.152344 " clip-rule="nonzero"/></clipPath><clipPath id="4fd03d1500"><path d="M 217 190.152344 L 237 190.152344 L 237 286.902344 L 217 286.902344 Z M 217 190.152344 " clip-rule="nonzero"/></clipPath><clipPath id="2652e5b522"><path d="M 0 379.046875 L 391 379.046875 L 391 471.296875 L 0 471.296875 Z M 0 379.046875 " clip-rule="nonzero"/></clipPath><clipPath id="8382f84b65"><path d="M 368 379.046875 L 379 379.046875 L 379 471.296875 L 368 471.296875 Z M 368 379.046875 " clip-rule="nonzero"/></clipPath><clipPath id="92c5340364"><path d="M 348 379.046875 L 359 379.046875 L 359 471.296875 L 348 471.296875 Z M 348 379.046875 " clip-rule="nonzero"/></clipPath><clipPath id="a9f9329cc5"><path d="M 0 379.046875 L 8 379.046875 L 8 471.296875 L 0 471.296875 Z M 0 379.046875 " clip-rule="nonzero"/></clipPath><clipPath id="969bdb7ab1"><path d="M 0 484 L 286.179688 484 L 286.179688 556.5625 L 0 556.5625 Z M 0 484 " clip-rule="nonzero"/></clipPath><clipPath id="af679c9ca7"><path d="M 23 484 L 44 484 L 44 556.5625 L 23 556.5625 Z M 23 484 " clip-rule="nonzero"/></clipPath><clipPath id="af0277f944"><path d="M 218 484 L 238 484 L 238 556.5625 L 218 556.5625 Z M 218 484 " clip-rule="nonzero"/></clipPath><clipPath id="4904d328cd"><path d="M 0 565.796875 L 326.679688 565.796875 L 326.679688 676 L 0 676 Z M 0 565.796875 " clip-rule="nonzero"/></clipPath><clipPath id="99fc2e2f02"><path d="M 29 565.796875 L 52 565.796875 L 52 676 L 29 676 Z M 29 565.796875 " clip-rule="nonzero"/></clipPath><clipPath id="678c3d3fd9"><path d="M 249 565.796875 L 272 565.796875 L 272 676 L 249 676 Z M 249 565.796875 " clip-rule="nonzero"/></clipPath><clipPath id="58edd02d21"><path d="M 0 685.265625 L 217.980469 685.265625 L 217.980469 758 L 0 758 Z M 0 685.265625 " clip-rule="nonzero"/></clipPath><clipPath id="633ad974c3"><path d="M 150 685.265625 L 170 685.265625 L 170 758 L 150 758 Z M 150 685.265625 " clip-rule="nonzero"/></clipPath><clipPath id="9dd7d45334"><path d="M 0 772.976562 L 286.179688 772.976562 L 286.179688 860.726562 L 0 860.726562 Z M 0 772.976562 " clip-rule="nonzero"/></clipPath><clipPath id="a695d3fc5c"><path d="M 23 772.976562 L 44 772.976562 L 44 860.726562 L 23 860.726562 Z M 23 772.976562 " clip-rule="nonzero"/></clipPath><clipPath id="2a31924883"><path d="M 218 772.976562 L 238 772.976562 L 238 860.726562 L 218 860.726562 Z M 218 772.976562 " clip-rule="nonzero"/></clipPath><clipPath id="3652faf374"><path d="M 0 875.878906 L 551.976562 875.878906 L 551.976562 1007.878906 L 0 1007.878906 Z M 0 875.878906 " clip-rule="nonzero"/></clipPath><clipPath id="8c505fb10b"><path d="M 519 875.878906 L 534 875.878906 L 534 1007.878906 L 519 1007.878906 Z M 519 875.878906 " clip-rule="nonzero"/></clipPath><clipPath id="5109294c51"><path d="M 490 875.878906 L 505 875.878906 L 505 1007.878906 L 490 1007.878906 Z M 490 875.878906 " clip-rule="nonzero"/></clipPath><clipPath id="c0406b50b1"><path d="M 0 875.878906 L 5 875.878906 L 5 1007.878906 L 0 1007.878906 Z M 0 875.878906 " clip-rule="nonzero"/></clipPath></defs><g clip-path="url(#9b58479238)"><path fill="#181d27" d="M -107.660156 77.671875 L -107.660156 -54.386719 L 487.734375 -54.386719 L 487.734375 77.671875 L -107.660156 77.671875 " fill-opacity="1" fill-rule="nonzero"/></g><g clip-path="url(#dce678e296)"><path fill="#3a7d44" d="M 456.066406 77.671875 L 456.066406 -54.386719 L 469.96875 -54.386719 L 469.96875 77.671875 L 456.066406 77.671875 " fill-opacity="1" fill-rule="nonzero"/></g><g clip-path="url(#4865c4a745)"><path fill="#3a7d44" d="M 427.503906 77.671875 L 427.503906 -54.386719 L 441.398438 -54.386719 L 441.398438 77.671875 L 427.503906 77.671875 " fill-opacity="1" fill-rule="nonzero"/></g><path fill="#3a7d44" d="M 13.964844 38.285156 L 13.964844 -15 L 367.257812 -15 L 367.257812 38.285156 L 13.964844 38.285156 " fill-opacity="1" fill-rule="nonzero"/><g clip-path="url(#a550433ba7)"><path fill="#69b578" d="M -25.070312 297.390625 L 286.445312 297.390625 L 286.445312 369.316406 L -25.070312 369.316406 Z M -25.070312 297.390625 " fill-opacity="1" fill-rule="nonzero"/></g><g clip-path="url(#f98cae6a78)"><path fill="#f2f1dc" d="M 23.601562 297.390625 L 43.074219 297.390625 L 43.074219 369.316406 L 23.601562 369.316406 Z M 23.601562 297.390625 " fill-opacity="1" fill-rule="nonzero"/></g><g clip-path="url(#561ccbb948)"><path fill="#f2f1dc" d="M 218.304688 297.390625 L 237.773438 297.390625 L 237.773438 369.316406 L 218.304688 369.316406 Z M 218.304688 297.390625 " fill-opacity="1" fill-rule="nonzero"/></g><path fill="#f2f1dc" d="M 72.277344 318.96875 L 189.09375 318.96875 L 189.09375 347.734375 L 72.277344 347.734375 Z M 72.277344 318.96875 " fill-opacity="1" fill-rule="nonzero"/><g clip-path="url(#cf71bb56a8)"><path fill="#3a7d44" d="M -25.066406 92.976562 L 286.476562 92.976562 L 286.476562 180.597656 L -25.066406 180.597656 Z M -25.066406 92.976562 " fill-opacity="1" fill-rule="nonzero"/></g><g clip-path="url(#232b54759f)"><path fill="#181d27" d="M 23.613281 92.976562 L 43.085938 92.976562 L 43.085938 180.597656 L 23.613281 180.597656 Z M 23.613281 92.976562 " fill-opacity="1" fill-rule="nonzero"/></g><g clip-path="url(#253cf3e84b)"><path fill="#181d27" d="M 218.328125 92.976562 L 237.796875 92.976562 L 237.796875 180.597656 L 218.328125 180.597656 Z M 218.328125 92.976562 " fill-opacity="1" fill-rule="nonzero"/></g><path fill="#181d27" d="M 72.292969 122.183594 L 189.121094 122.183594 L 189.121094 151.390625 L 72.292969 151.390625 Z M 72.292969 122.183594 " fill-opacity="1" fill-rule="nonzero"/><g clip-path="url(#9cd2367b2d)"><path fill="#3a7d44" d="M -25.0625 190.152344 L 284.949219 190.152344 L 284.949219 287.03125 L -25.0625 287.03125 Z M -25.0625 190.152344 " fill-opacity="1" fill-rule="nonzero"/></g><g clip-path="url(#9ae5ec2b2b)"><path fill="#69b578" d="M 23.378906 190.152344 L 42.753906 190.152344 L 42.753906 287.03125 L 23.378906 287.03125 Z M 23.378906 190.152344 " fill-opacity="1" fill-rule="nonzero"/></g><g clip-path="url(#4fd03d1500)"><path fill="#69b578" d="M 217.136719 190.152344 L 236.511719 190.152344 L 236.511719 287.03125 L 217.136719 287.03125 Z M 217.136719 190.152344 " fill-opacity="1" fill-rule="nonzero"/></g><path fill="#69b578" d="M 71.816406 219.214844 L 188.070312 219.214844 L 188.070312 257.964844 L 71.816406 257.964844 Z M 71.816406 219.214844 " fill-opacity="1" fill-rule="nonzero"/><g clip-path="url(#2652e5b522)"><path fill="#f2f1dc" d="M -25.972656 471.5 L -25.972656 379.066406 L 390.761719 379.066406 L 390.761719 471.5 L -25.972656 471.5 " fill-opacity="1" fill-rule="nonzero"/></g><g clip-path="url(#8382f84b65)"><path fill="#69b578" d="M 368.597656 471.5 L 368.597656 379.066406 L 378.328125 379.066406 L 378.328125 471.5 L 368.597656 471.5 " fill-opacity="1" fill-rule="nonzero"/></g><g clip-path="url(#92c5340364)"><path fill="#69b578" d="M 348.605469 471.5 L 348.605469 379.066406 L 358.332031 379.066406 L 358.332031 471.5 L 348.605469 471.5 " fill-opacity="1" fill-rule="nonzero"/></g><g clip-path="url(#a9f9329cc5)"><path fill="#69b578" d="M -25.972656 471.5 L -25.972656 379.066406 L 7.941406 379.066406 L 7.941406 471.5 L -25.972656 471.5 " fill-opacity="1" fill-rule="nonzero"/></g><path fill="#69b578" d="M 59.160156 443.929688 L 59.160156 406.636719 L 306.4375 406.636719 L 306.4375 443.929688 L 59.160156 443.929688 " fill-opacity="1" fill-rule="nonzero"/><g clip-path="url(#969bdb7ab1)"><path fill="#181d27" d="M -25.070312 484.144531 L 286.445312 484.144531 L 286.445312 556.070312 L -25.070312 556.070312 Z M -25.070312 484.144531 " fill-opacity="1" fill-rule="nonzero"/></g><g clip-path="url(#af679c9ca7)"><path fill="#f2f1dc" d="M 23.601562 484.144531 L 43.074219 484.144531 L 43.074219 556.070312 L 23.601562 556.070312 Z M 23.601562 484.144531 " fill-opacity="1" fill-rule="nonzero"/></g><g clip-path="url(#af0277f944)"><path fill="#f2f1dc" d="M 218.304688 484.144531 L 237.773438 484.144531 L 237.773438 556.070312 L 218.304688 556.070312 Z M 218.304688 484.144531 " fill-opacity="1" fill-rule="nonzero"/></g><path fill="#f2f1dc" d="M 72.277344 505.71875 L 189.09375 505.71875 L 189.09375 534.488281 L 72.277344 534.488281 Z M 72.277344 505.71875 " fill-opacity="1" fill-rule="nonzero"/><g clip-path="url(#4904d328cd)"><path fill="#69b578" d="M -25.070312 565.796875 L 326.679688 565.796875 L 326.679688 675.71875 L -25.070312 675.71875 Z M -25.070312 565.796875 " fill-opacity="1" fill-rule="nonzero"/></g><g clip-path="url(#99fc2e2f02)"><path fill="#3a7d44" d="M 29.890625 565.796875 L 51.875 565.796875 L 51.875 675.71875 L 29.890625 675.71875 Z M 29.890625 565.796875 " fill-opacity="1" fill-rule="nonzero"/></g><g clip-path="url(#678c3d3fd9)"><path fill="#3a7d44" d="M 249.734375 565.796875 L 271.71875 565.796875 L 271.71875 675.71875 L 249.734375 675.71875 Z M 249.734375 565.796875 " fill-opacity="1" fill-rule="nonzero"/></g><path fill="#3a7d44" d="M 84.851562 598.773438 L 216.757812 598.773438 L 216.757812 642.742188 L 84.851562 642.742188 Z M 84.851562 598.773438 " fill-opacity="1" fill-rule="nonzero"/><g clip-path="url(#58edd02d21)"><path fill="#f2f1dc" d="M -93.269531 685.597656 L 218.246094 685.597656 L 218.246094 757.523438 L -93.269531 757.523438 Z M -93.269531 685.597656 " fill-opacity="1" fill-rule="nonzero"/></g><g clip-path="url(#633ad974c3)"><path fill="#181d27" d="M 150.105469 685.597656 L 169.574219 685.597656 L 169.574219 757.523438 L 150.105469 757.523438 Z M 150.105469 685.597656 " fill-opacity="1" fill-rule="nonzero"/></g><path fill="#181d27" d="M 4.078125 707.171875 L 120.894531 707.171875 L 120.894531 735.941406 L 4.078125 735.941406 Z M 4.078125 707.171875 " fill-opacity="1" fill-rule="nonzero"/><g clip-path="url(#9dd7d45334)"><path fill="#69b578" d="M -25.066406 772.976562 L 286.476562 772.976562 L 286.476562 860.597656 L -25.066406 860.597656 Z M -25.066406 772.976562 " fill-opacity="1" fill-rule="nonzero"/></g><g clip-path="url(#a695d3fc5c)"><path fill="#181d27" d="M 23.613281 772.976562 L 43.085938 772.976562 L 43.085938 860.597656 L 23.613281 860.597656 Z M 23.613281 772.976562 " fill-opacity="1" fill-rule="nonzero"/></g><g clip-path="url(#2a31924883)"><path fill="#181d27" d="M 218.328125 772.976562 L 237.796875 772.976562 L 237.796875 860.597656 L 218.328125 860.597656 Z M 218.328125 772.976562 " fill-opacity="1" fill-rule="nonzero"/></g><path fill="#181d27" d="M 72.292969 802.183594 L 189.121094 802.183594 L 189.121094 831.390625 L 72.292969 831.390625 Z M 72.292969 802.183594 " fill-opacity="1" fill-rule="nonzero"/><g clip-path="url(#3652faf374)"><path fill="#69b578" d="M -44.300781 1007.964844 L -44.300781 875.90625 L 551.09375 875.90625 L 551.09375 1007.964844 L -44.300781 1007.964844 " fill-opacity="1" fill-rule="nonzero"/></g><g clip-path="url(#8c505fb10b)"><path fill="#3a7d44" d="M 519.425781 1007.964844 L 519.425781 875.90625 L 533.332031 875.90625 L 533.332031 1007.964844 L 519.425781 1007.964844 " fill-opacity="1" fill-rule="nonzero"/></g><g clip-path="url(#5109294c51)"><path fill="#3a7d44" d="M 490.867188 1007.964844 L 490.867188 875.90625 L 504.757812 875.90625 L 504.757812 1007.964844 L 490.867188 1007.964844 " fill-opacity="1" fill-rule="nonzero"/></g><g clip-path="url(#c0406b50b1)"><path fill="#3a7d44" d="M -44.300781 1007.964844 L -44.300781 875.90625 L 4.148438 875.90625 L 4.148438 1007.964844 L -44.300781 1007.964844 " fill-opacity="1" fill-rule="nonzero"/></g><path fill="#3a7d44" d="M 77.328125 968.578125 L 77.328125 915.296875 L 430.617188 915.296875 L 430.617188 968.578125 L 77.328125 968.578125 " fill-opacity="1" fill-rule="nonzero"/></svg>