<svg xmlns="http://www.w3.org/2000/svg" xmlns:xlink="http://www.w3.org/1999/xlink" width="1344" zoomAndPan="magnify" viewBox="0 0 1008 1007.999987" height="1344" preserveAspectRatio="xMidYMid meet" version="1.0"><metadata><ContainsAiGeneratedContent>Yes</ContainsAiGeneratedContent></metadata><defs><clipPath id="459f167993"><path d="M 328.609375 348 L 616 348 L 616 703 L 328.609375 703 Z M 328.609375 348 " clip-rule="nonzero"/></clipPath></defs><g clip-path="url(#459f167993)"><path fill="#ffffff" d="M 590.582031 702.976562 L 353.03125 702.976562 C 339.710938 702.976562 328.609375 691.875 328.609375 678.554688 L 328.609375 373.292969 C 328.609375 359.96875 339.710938 348.871094 353.03125 348.871094 L 376.34375 348.871094 C 380.785156 348.871094 384.667969 352.753906 384.667969 357.195312 C 384.667969 361.636719 380.785156 365.519531 376.34375 365.519531 L 353.03125 365.519531 C 348.59375 365.519531 345.261719 368.851562 345.261719 373.292969 L 345.261719 678.554688 C 345.261719 682.996094 348.59375 686.328125 353.03125 686.328125 L 590.582031 686.328125 C 595.023438 686.328125 598.355469 682.996094 598.355469 678.554688 L 598.355469 573.101562 C 598.355469 568.660156 602.238281 564.777344 606.679688 564.777344 C 611.121094 564.777344 615.003906 568.660156 615.003906 573.101562 L 615.003906 678.554688 C 615.003906 692.433594 604.460938 702.976562 590.582031 702.976562 Z M 590.582031 702.976562 " fill-opacity="1" fill-rule="nonzero"/></g><path fill="#ffffff" d="M 606.679688 403.816406 C 602.238281 403.816406 598.355469 399.933594 598.355469 395.492188 L 598.355469 373.292969 C 598.355469 368.851562 595.023438 365.519531 590.582031 365.519531 L 567.273438 365.519531 C 562.832031 365.519531 558.945312 361.636719 558.945312 357.195312 C 558.945312 352.753906 562.832031 348.871094 567.273438 348.871094 L 590.582031 348.871094 C 603.90625 348.871094 615.003906 359.96875 615.003906 373.292969 L 615.003906 395.492188 C 615.003906 399.933594 611.675781 403.816406 606.679688 403.816406 Z M 606.679688 403.816406 " fill-opacity="1" fill-rule="nonzero"/><path fill="#ffffff" d="M 526.199219 399.378906 L 417.414062 399.378906 C 409.089844 399.378906 401.875 392.71875 401.875 383.835938 L 401.875 342.765625 C 401.875 334.4375 408.535156 327.222656 417.414062 327.222656 L 442.390625 327.222656 C 446.277344 314.457031 457.933594 305.023438 471.808594 305.023438 C 485.683594 305.023438 497.894531 314.457031 501.222656 327.222656 L 525.644531 327.222656 C 533.972656 327.222656 541.1875 333.882812 541.1875 342.765625 L 541.1875 383.835938 C 541.742188 392.71875 535.082031 399.378906 526.199219 399.378906 Z M 419.082031 382.726562 L 525.089844 382.726562 L 525.089844 343.875 L 494.5625 343.875 C 490.125 343.875 486.238281 339.988281 486.238281 335.550781 C 486.238281 327.777344 480.132812 321.671875 472.363281 321.671875 C 464.59375 321.671875 458.488281 327.777344 458.488281 335.550781 C 458.488281 339.988281 454.601562 343.875 450.160156 343.875 L 419.082031 343.875 Z M 419.082031 382.726562 " fill-opacity="1" fill-rule="nonzero"/><path fill="#ffffff" d="M 437.953125 568.660156 L 381.894531 568.660156 L 381.894531 512.601562 L 437.953125 512.601562 Z M 398.542969 552.011719 L 421.300781 552.011719 L 421.300781 529.253906 L 398.542969 529.253906 Z M 398.542969 552.011719 " fill-opacity="1" fill-rule="nonzero"/><path fill="#ffffff" d="M 506.21875 548.679688 L 470.699219 548.679688 C 466.257812 548.679688 462.371094 544.792969 462.371094 540.355469 C 462.371094 535.914062 466.257812 532.027344 470.699219 532.027344 L 506.21875 532.027344 C 510.660156 532.027344 514.546875 535.914062 514.546875 540.355469 C 514.546875 544.792969 510.660156 548.679688 506.21875 548.679688 Z M 506.21875 548.679688 " fill-opacity="1" fill-rule="nonzero"/><path fill="#ffffff" d="M 437.953125 651.359375 L 381.894531 651.359375 L 381.894531 595.300781 L 437.953125 595.300781 Z M 398.542969 634.707031 L 421.300781 634.707031 L 421.300781 611.953125 L 398.542969 611.953125 Z M 398.542969 634.707031 " fill-opacity="1" fill-rule="nonzero"/><path fill="#ffffff" d="M 437.953125 485.960938 L 381.894531 485.960938 L 381.894531 429.902344 L 437.953125 429.902344 Z M 398.542969 469.3125 L 421.300781 469.3125 L 421.300781 446.554688 L 398.542969 446.554688 Z M 398.542969 469.3125 " fill-opacity="1" fill-rule="nonzero"/><path fill="#ffffff" d="M 553.398438 449.886719 L 470.144531 449.886719 C 465.703125 449.886719 461.816406 446 461.816406 441.558594 C 461.816406 437.121094 465.703125 433.234375 470.144531 433.234375 L 553.398438 433.234375 C 557.835938 433.234375 561.722656 437.121094 561.722656 441.558594 C 561.722656 446 558.390625 449.886719 553.398438 449.886719 Z M 553.398438 449.886719 " fill-opacity="1" fill-rule="nonzero"/><path fill="#ffffff" d="M 531.75 482.078125 L 470.699219 482.078125 C 466.257812 482.078125 462.371094 478.191406 462.371094 473.75 C 462.371094 469.3125 466.257812 465.425781 470.699219 465.425781 L 532.304688 465.425781 C 536.746094 465.425781 540.632812 469.3125 540.632812 473.75 C 540.632812 478.191406 536.746094 482.078125 531.75 482.078125 Z M 531.75 482.078125 " fill-opacity="1" fill-rule="nonzero"/><path fill="#ffffff" d="M 507.328125 638.59375 C 505.664062 638.59375 504 638.039062 502.890625 636.929688 C 500.113281 635.265625 498.449219 631.378906 499.558594 628.046875 L 509.550781 585.867188 C 509.550781 584.757812 510.105469 583.644531 510.660156 583.089844 L 613.339844 432.679688 C 616.113281 428.792969 621.109375 427.683594 624.996094 430.457031 C 628.878906 433.234375 629.992188 438.230469 627.214844 442.113281 L 524.535156 591.972656 L 520.09375 611.398438 L 536.746094 600.296875 L 647.75 437.675781 L 628.878906 424.910156 C 627.214844 423.796875 625.550781 421.578125 625.550781 419.359375 C 624.996094 417.136719 625.550781 414.917969 626.660156 413.253906 L 637.207031 397.15625 C 639.980469 393.273438 644.976562 392.160156 648.863281 394.9375 L 674.394531 412.699219 C 678.277344 415.472656 679.386719 420.46875 676.613281 424.355469 C 673.835938 428.238281 668.84375 429.347656 664.957031 426.574219 L 646.085938 413.808594 L 644.976562 415.472656 L 663.847656 428.238281 C 665.511719 429.347656 667.175781 431.570312 667.175781 433.789062 C 667.734375 436.007812 667.175781 438.230469 666.066406 439.894531 L 549.511719 610.289062 C 548.957031 611.398438 548.402344 611.953125 547.292969 612.507812 L 511.769531 637.484375 C 510.660156 638.039062 508.996094 638.59375 507.328125 638.59375 Z M 507.328125 638.59375 " fill-opacity="1" fill-rule="nonzero"/></svg>