<svg xmlns="http://www.w3.org/2000/svg" xmlns:xlink="http://www.w3.org/1999/xlink" width="1344" zoomAndPan="magnify" viewBox="0 0 1008 1007.999987" height="1344" preserveAspectRatio="xMidYMid meet" version="1.0"><metadata><ContainsAiGeneratedContent>Yes</ContainsAiGeneratedContent></metadata><defs><clipPath id="81615713c3"><path d="M 63.230469 114 L 783 114 L 783 1005 L 63.230469 1005 Z M 63.230469 114 " clip-rule="nonzero"/></clipPath></defs><g clip-path="url(#81615713c3)"><path fill="#ffffff" d="M 721.589844 1004.046875 L 124.601562 1004.046875 C 91.125 1004.046875 63.230469 976.148438 63.230469 942.671875 L 63.230469 175.519531 C 63.230469 142.042969 91.125 114.144531 124.601562 114.144531 L 183.183594 114.144531 C 194.34375 114.144531 204.105469 123.910156 204.105469 135.066406 C 204.105469 146.226562 194.34375 155.992188 183.183594 155.992188 L 124.601562 155.992188 C 113.441406 155.992188 105.074219 164.359375 105.074219 175.519531 L 105.074219 942.671875 C 105.074219 953.832031 113.441406 962.199219 124.601562 962.199219 L 721.589844 962.199219 C 732.746094 962.199219 741.117188 953.832031 741.117188 942.671875 L 741.117188 677.65625 C 741.117188 666.496094 750.878906 656.734375 762.039062 656.734375 C 773.195312 656.734375 782.960938 666.496094 782.960938 677.65625 L 782.960938 942.671875 C 782.960938 977.542969 756.457031 1004.046875 721.589844 1004.046875 Z M 721.589844 1004.046875 " fill-opacity="1" fill-rule="nonzero"/></g><path fill="#ffffff" d="M 762.039062 252.234375 C 750.878906 252.234375 741.117188 242.46875 741.117188 231.3125 L 741.117188 175.519531 C 741.117188 164.359375 732.746094 155.992188 721.585938 155.992188 L 663.003906 155.992188 C 651.847656 155.992188 642.082031 146.226562 642.082031 135.066406 C 642.082031 123.910156 651.847656 114.144531 663.003906 114.144531 L 721.585938 114.144531 C 755.0625 114.144531 782.960938 142.042969 782.960938 175.519531 L 782.960938 231.3125 C 782.960938 242.46875 774.589844 252.234375 762.039062 252.234375 Z M 762.039062 252.234375 " fill-opacity="1" fill-rule="nonzero"/><path fill="#ffffff" d="M 559.789062 241.074219 L 286.402344 241.074219 C 265.480469 241.074219 247.347656 224.335938 247.347656 202.019531 L 247.347656 98.800781 C 247.347656 77.878906 264.085938 59.746094 286.402344 59.746094 L 349.167969 59.746094 C 358.933594 27.667969 388.222656 3.953125 423.09375 3.953125 C 457.964844 3.953125 488.652344 27.667969 497.019531 59.746094 L 558.394531 59.746094 C 579.316406 59.746094 597.449219 76.484375 597.449219 98.800781 L 597.449219 202.019531 C 598.84375 224.335938 582.105469 241.074219 559.789062 241.074219 Z M 290.585938 199.230469 L 557 199.230469 L 557 101.59375 L 480.28125 101.59375 C 469.125 101.59375 459.359375 91.828125 459.359375 80.667969 C 459.359375 61.140625 444.015625 45.800781 424.488281 45.800781 C 404.960938 45.800781 389.617188 61.140625 389.617188 80.667969 C 389.617188 91.828125 379.855469 101.59375 368.695312 101.59375 L 290.585938 101.59375 Z M 290.585938 199.230469 " fill-opacity="1" fill-rule="nonzero"/><path fill="#ffffff" d="M 338.011719 666.496094 L 197.132812 666.496094 L 197.132812 525.621094 L 338.011719 525.621094 Z M 238.976562 624.652344 L 296.164062 624.652344 L 296.164062 567.464844 L 238.976562 567.464844 Z M 238.976562 624.652344 " fill-opacity="1" fill-rule="nonzero"/><path fill="#ffffff" d="M 509.574219 616.285156 L 420.304688 616.285156 C 409.144531 616.285156 399.382812 606.519531 399.382812 595.359375 C 399.382812 584.203125 409.144531 574.4375 420.304688 574.4375 L 509.574219 574.4375 C 520.734375 574.4375 530.496094 584.203125 530.496094 595.359375 C 530.496094 606.519531 520.734375 616.285156 509.574219 616.285156 Z M 509.574219 616.285156 " fill-opacity="1" fill-rule="nonzero"/><path fill="#ffffff" d="M 338.011719 874.328125 L 197.132812 874.328125 L 197.132812 733.449219 L 338.011719 733.449219 Z M 238.976562 832.480469 L 296.164062 832.480469 L 296.164062 775.292969 L 238.976562 775.292969 Z M 238.976562 832.480469 " fill-opacity="1" fill-rule="nonzero"/><path fill="#ffffff" d="M 338.011719 458.667969 L 197.132812 458.667969 L 197.132812 317.789062 L 338.011719 317.789062 Z M 238.976562 416.824219 L 296.164062 416.824219 L 296.164062 359.636719 L 238.976562 359.636719 Z M 238.976562 416.824219 " fill-opacity="1" fill-rule="nonzero"/><path fill="#ffffff" d="M 628.132812 368.003906 L 418.910156 368.003906 C 407.75 368.003906 397.988281 358.242188 397.988281 347.082031 C 397.988281 335.921875 407.75 326.160156 418.910156 326.160156 L 628.132812 326.160156 C 639.292969 326.160156 649.058594 335.921875 649.058594 347.082031 C 649.058594 358.242188 640.6875 368.003906 628.132812 368.003906 Z M 628.132812 368.003906 " fill-opacity="1" fill-rule="nonzero"/><path fill="#ffffff" d="M 573.734375 448.90625 L 420.304688 448.90625 C 409.144531 448.90625 399.382812 439.140625 399.382812 427.980469 C 399.382812 416.824219 409.144531 407.058594 420.304688 407.058594 L 575.132812 407.058594 C 586.289062 407.058594 596.054688 416.824219 596.054688 427.980469 C 596.054688 439.140625 586.289062 448.90625 573.734375 448.90625 Z M 573.734375 448.90625 " fill-opacity="1" fill-rule="nonzero"/><path fill="#ffffff" d="M 512.363281 842.246094 C 508.179688 842.246094 503.996094 840.851562 501.207031 838.0625 C 494.230469 833.875 490.046875 824.113281 492.835938 815.742188 L 517.941406 709.738281 C 517.941406 706.949219 519.335938 704.15625 520.734375 702.761719 L 778.777344 324.765625 C 785.75 315 798.304688 312.210938 808.066406 319.183594 C 817.832031 326.160156 820.621094 338.714844 813.648438 348.476562 L 555.601562 725.082031 L 544.445312 773.898438 L 586.289062 746.003906 L 865.253906 337.316406 L 817.832031 305.238281 C 813.644531 302.449219 809.460938 296.867188 809.460938 291.289062 C 808.066406 285.710938 809.460938 280.128906 812.25 275.945312 L 838.753906 235.496094 C 845.726562 225.730469 858.28125 222.941406 868.042969 229.917969 L 932.207031 274.550781 C 941.96875 281.523438 944.761719 294.078125 937.785156 303.84375 C 930.8125 313.605469 918.257812 316.394531 908.496094 309.421875 L 861.070312 277.339844 L 858.28125 281.523438 L 905.707031 313.605469 C 909.890625 316.394531 914.074219 321.976562 914.074219 327.554688 C 915.46875 333.132812 914.074219 338.714844 911.285156 342.898438 L 618.371094 771.109375 C 616.976562 773.898438 615.582031 775.292969 612.792969 776.6875 L 523.523438 839.457031 C 520.734375 840.851562 516.546875 842.246094 512.363281 842.246094 Z M 512.363281 842.246094 " fill-opacity="1" fill-rule="nonzero"/></svg>