<svg xmlns="http://www.w3.org/2000/svg" xmlns:xlink="http://www.w3.org/1999/xlink" width="1344" zoomAndPan="magnify" viewBox="0 0 1008 1007.999987" height="1344" preserveAspectRatio="xMidYMid meet" version="1.0"><metadata><ContainsAiGeneratedContent>Yes</ContainsAiGeneratedContent></metadata><defs><clipPath id="8611e7944b"><path d="M 365.652344 302.398438 L 642.402344 302.398438 L 642.402344 699 L 365.652344 699 Z M 365.652344 302.398438 " clip-rule="nonzero"/></clipPath></defs><g clip-path="url(#8611e7944b)"><path fill="#ffffff" d="M 504 302.53125 C 580.40625 302.53125 642.347656 364.472656 642.347656 440.882812 C 642.347656 467.46875 634.84375 492.292969 621.847656 513.378906 C 606.253906 539.203125 590.660156 565.035156 575.070312 590.863281 C 556.082031 621.730469 540.714844 646.710938 521.730469 677.578125 C 504.988281 704.792969 503.859375 705.460938 487.03125 678.105469 C 468.136719 647.394531 452.253906 621.574219 433.363281 590.863281 C 417.804688 565.324219 402.253906 539.785156 386.695312 514.25 C 373.371094 492.980469 365.652344 467.835938 365.652344 440.882812 C 365.652344 364.472656 427.59375 302.53125 504 302.53125 Z M 504 371.894531 C 538.253906 371.894531 566.023438 399.664062 566.023438 433.917969 C 566.023438 468.171875 538.253906 495.9375 504 495.9375 C 469.746094 495.9375 441.976562 468.171875 441.976562 433.917969 C 441.980469 399.664062 469.746094 371.894531 504 371.894531 Z M 504 371.894531 " fill-opacity="1" fill-rule="evenodd"/></g></svg>