<svg xmlns="http://www.w3.org/2000/svg" xmlns:xlink="http://www.w3.org/1999/xlink" width="1344" zoomAndPan="magnify" viewBox="0 0 1008 1007.999987" height="1344" preserveAspectRatio="xMidYMid meet" version="1.0"><metadata><ContainsAiGeneratedContent>Yes</ContainsAiGeneratedContent></metadata><defs><clipPath id="b4fb615a03"><path d="M 158.128906 0 L 849.628906 0 L 849.628906 990 L 158.128906 990 Z M 158.128906 0 " clip-rule="nonzero"/></clipPath></defs><g clip-path="url(#b4fb615a03)"><path fill="#ffffff" d="M 504.003906 0.332031 C 695.023438 0.332031 849.878906 155.1875 849.878906 346.210938 C 849.878906 412.675781 831.117188 474.742188 798.621094 527.449219 C 759.640625 592.015625 720.660156 656.59375 681.683594 721.167969 C 634.207031 798.335938 595.796875 860.78125 548.328125 937.949219 C 506.476562 1005.992188 503.648438 1007.664062 461.578125 939.273438 C 414.34375 862.492188 374.636719 797.949219 327.40625 721.167969 C 288.515625 657.320312 249.636719 593.472656 210.742188 529.628906 C 177.421875 476.457031 158.128906 413.589844 158.128906 346.210938 C 158.128906 155.1875 312.984375 0.332031 504.003906 0.332031 Z M 504.003906 173.742188 C 589.636719 173.742188 659.0625 243.164062 659.0625 328.796875 C 659.0625 414.433594 589.640625 483.851562 504.003906 483.851562 C 418.367188 483.851562 348.945312 414.429688 348.945312 328.796875 C 348.949219 243.164062 418.367188 173.742188 504.003906 173.742188 Z M 504.003906 173.742188 " fill-opacity="1" fill-rule="evenodd"/></g></svg>