<?xml version="1.0" encoding="UTF-8"?>
<!DOCTYPE svg PUBLIC "-//W3C//DTD SVG 1.1//EN" "http://www.w3.org/Graphics/SVG/1.1/DTD/svg11.dtd">
<svg xmlns="http://www.w3.org/2000/svg" version="1.1" width="1200px" height="371px" style="shape-rendering:geometricPrecision; text-rendering:geometricPrecision; image-rendering:optimizeQuality; fill-rule:evenodd; clip-rule:evenodd" xmlns:xlink="http://www.w3.org/1999/xlink">
<g><path style="opacity:1" fill="#010101" d="M 50.5,-0.5 C 58.1667,-0.5 65.8333,-0.5 73.5,-0.5C 86.9844,2.07005 100.651,4.57005 114.5,7C 115.333,7.83333 116.167,8.66667 117,9.5C 117.667,20.1667 117.667,30.8333 117,41.5C 116.586,41.9574 116.086,42.2907 115.5,42.5C 100.066,35.0053 83.7324,31.0053 66.5,30.5C 56.7474,29.6466 48.2474,32.3133 41,38.5C 35.4809,50.9518 39.3142,58.7852 52.5,62C 70.9512,64.8291 88.9512,69.4958 106.5,76C 120.539,85.0639 127.872,98.0639 128.5,115C 128.048,129.363 123.381,142.03 114.5,153C 108.531,157.985 101.864,161.652 94.5,164C 75.4186,169.161 56.0853,169.828 36.5,166C 25.277,163.743 14.277,160.743 3.5,157C 3,156.5 2.5,156 2,155.5C 1.16748,143.819 1.33415,132.152 2.5,120.5C 24.3088,133.741 47.9755,138.908 73.5,136C 86.2714,130.669 89.7714,121.835 84,109.5C 77.5327,105.838 70.6993,103.005 63.5,101C 46.8561,98.7486 31.1895,93.7486 16.5,86C 7.39942,78.5841 2.23276,69.0841 1,57.5C 0.617425,56.944 0.117425,56.6107 -0.5,56.5C -0.5,52.5 -0.5,48.5 -0.5,44.5C 1.63765,27.9601 9.97098,15.4601 24.5,7C 33.2126,3.99497 41.8793,1.49497 50.5,-0.5 Z"/></g>
<g><path style="opacity:1" fill="#000000" d="M 164.5,1.5 C 178.079,1.177 191.579,1.51033 205,2.5C 205.5,56.499 205.667,110.499 205.5,164.5C 191.5,164.5 177.5,164.5 163.5,164.5C 163.171,110.095 163.505,55.7618 164.5,1.5 Z"/></g>
<g><path style="opacity:1" fill="#020202" d="M 386.5,1.5 C 423.833,1.5 461.167,1.5 498.5,1.5C 498.5,12.1667 498.5,22.8333 498.5,33.5C 475.167,33.5 451.833,33.5 428.5,33.5C 428.5,43.5 428.5,53.5 428.5,63.5C 450.503,63.3334 472.503,63.5 494.5,64C 495.487,74.4179 495.82,84.9179 495.5,95.5C 473.167,95.5 450.833,95.5 428.5,95.5C 428.5,107.833 428.5,120.167 428.5,132.5C 452.741,132.172 476.908,132.506 501,133.5C 501.819,143.744 501.652,153.91 500.5,164C 462.496,164.833 424.496,164.667 386.5,163.5C 385.171,109.5 385.171,55.5 386.5,1.5 Z"/></g>
<g><path style="opacity:1" fill="#000000" d="M 538.5,1.5 C 553.17,1.33342 567.837,1.50009 582.5,2C 583.333,2.83333 584.167,3.66667 585,4.5C 603.3,40.0991 621.967,75.4324 641,110.5C 641.333,74.8333 641.667,39.1667 642,3.5C 642.5,3 643,2.5 643.5,2C 656.076,1.17857 668.576,1.34523 681,2.5C 681.5,56.499 681.667,110.499 681.5,164.5C 665.833,164.5 650.167,164.5 634.5,164.5C 615.815,127.97 596.648,91.6371 577,55.5C 576.5,91.8318 576.333,128.165 576.5,164.5C 563.587,164.822 550.754,164.489 538,163.5C 537.171,109.429 537.338,55.4294 538.5,1.5 Z"/></g>
<g><path style="opacity:1" fill="#000000" d="M 246.5,3.5 C 260.079,3.177 273.579,3.51033 287,4.5C 287.333,46.8333 287.667,89.1667 288,131.5C 312.092,132.494 336.259,132.828 360.5,132.5C 360.5,143.167 360.5,153.833 360.5,164.5C 322.5,164.5 284.5,164.5 246.5,164.5C 246.5,110.833 246.5,57.1667 246.5,3.5 Z"/></g>
<g><path style="opacity:1" fill="#000000" d="M 703.5,3.5 C 752.834,3.33334 802.168,3.50001 851.5,4C 852.651,13.7559 852.818,23.5893 852,33.5C 851.5,34 851,34.5 850.5,35C 833.17,35.4999 815.837,35.6666 798.5,35.5C 798.5,78.5 798.5,121.5 798.5,164.5C 784.588,164.823 770.754,164.49 757,163.5C 756.5,120.835 756.333,78.168 756.5,35.5C 739.163,35.6666 721.83,35.4999 704.5,35C 703.513,24.5821 703.18,14.0821 703.5,3.5 Z"/></g>
<g><path style="opacity:1" fill="#000000" d="M 930.5,4.5 C 958.575,2.34425 985.908,5.84425 1012.5,15C 1047.46,27.2837 1068.96,51.4504 1077,87.5C 1078.03,103.194 1079.37,118.861 1081,134.5C 1087.97,148.438 1094.97,162.438 1102,176.5C 1106.31,184.186 1104.81,190.352 1097.5,195C 1089.16,195.426 1080.82,195.926 1072.5,196.5C 1072.67,212.837 1072.5,229.17 1072,245.5C 1069.73,261.767 1060.89,272.6 1045.5,278C 1033.55,279.365 1021.55,279.865 1009.5,279.5C 1009.67,297.17 1009.5,314.836 1009,332.5C 1008.98,337.374 1006.82,340.874 1002.5,343C 974.833,343.667 947.167,343.667 919.5,343C 918.52,335.921 918.187,328.755 918.5,321.5C 941.5,321.5 964.5,321.5 987.5,321.5C 987.333,302.497 987.5,283.497 988,264.5C 989.26,261.572 991.427,259.739 994.5,259C 1009.51,258.513 1024.51,257.846 1039.5,257C 1047.5,253.06 1051,246.56 1050,237.5C 1050.04,218.102 1050.7,198.769 1052,179.5C 1053.54,177.622 1055.38,176.122 1057.5,175C 1063.19,174.298 1068.86,173.465 1074.5,172.5C 1067.7,161.56 1062.53,149.893 1059,137.5C 1057.24,123.892 1056.24,110.225 1056,96.5C 1053.65,75.4974 1043.82,58.9974 1026.5,47C 1010.14,36.1625 992.143,29.8291 972.5,28C 942.45,22.0335 914.617,27.2001 889,43.5C 888.184,34.9213 888.351,26.4213 889.5,18C 902.587,11.3593 916.254,6.8593 930.5,4.5 Z"/></g>
<g><path style="opacity:1" fill="#000000" d="M -0.5,235.5 C -0.5,231.5 -0.5,227.5 -0.5,223.5C 1.42929,211.477 6.76263,200.977 15.5,192C 29.6045,182.752 45.2712,178.585 62.5,179.5C 80.5462,180.191 98.2129,182.691 115.5,187C 116,187.5 116.5,188 117,188.5C 117.5,199.495 117.667,210.495 117.5,221.5C 109.048,218.96 100.714,216.127 92.5,213C 83.6215,212.135 74.7882,210.969 66,209.5C 59.8363,210.74 53.6697,211.906 47.5,213C 43.3333,214.5 40.5,217.333 39,221.5C 37.0547,228.324 38.888,233.824 44.5,238C 56.8029,242.457 69.4696,245.457 82.5,247C 91.0111,249.249 99.3444,252.249 107.5,256C 126.192,270.134 132.359,288.634 126,311.5C 121.976,323.699 114.476,333.199 103.5,340C 81.4565,347.995 58.7899,349.662 35.5,345C 30.6014,343.632 25.6014,342.632 20.5,342C 14.5194,339.774 8.51938,337.608 2.5,335.5C 1.16667,323.833 1.16667,312.167 2.5,300.5C 24.6095,312.852 48.2761,317.686 73.5,315C 86.3851,310.342 89.8851,301.842 84,289.5C 81.4151,287.242 78.5818,285.409 75.5,284C 60.7569,280.423 46.0902,276.756 31.5,273C 13.6452,266.334 2.97855,253.834 -0.5,235.5 Z"/></g>
<g><path style="opacity:1" fill="#000000" d="M 541.5,179.5 C 562.337,178.534 582.337,182.034 601.5,190C 602.333,190.833 603.167,191.667 604,192.5C 604.819,203.077 604.652,213.577 603.5,224C 600.338,223.907 597.671,222.574 595.5,220C 577.39,210.888 558.39,208.554 538.5,213C 527.751,217.415 519.918,224.915 515,235.5C 507.679,254.114 507.679,272.781 515,291.5C 524.291,308.32 538.625,316.986 558,317.5C 566.928,316.261 575.761,314.428 584.5,312C 591.133,309.377 597.3,305.877 603,301.5C 603.333,301.833 603.667,302.167 604,302.5C 604.667,313.167 604.667,323.833 604,334.5C 603.167,335.333 602.333,336.167 601.5,337C 570.557,350.583 539.557,350.917 508.5,338C 479.626,321.606 465.959,296.772 467.5,263.5C 465.717,230.888 478.717,206.388 506.5,190C 516.935,184.891 527.935,181.891 539.5,181C 540.416,180.722 541.082,180.222 541.5,179.5 Z"/></g>
<g><path style="opacity:1" fill="#000000" d="M 832.5,179.5 C 841.839,179.334 851.173,179.5 860.5,180C 868.073,181.383 875.74,182.383 883.5,183C 888.865,184.172 894.199,185.505 899.5,187C 900.488,198.419 900.821,209.919 900.5,221.5C 892.561,218.357 884.561,215.524 876.5,213C 867.794,212.103 859.127,210.936 850.5,209.5C 844.206,210.848 837.873,212.015 831.5,213C 823.748,217.671 821.248,224.504 824,233.5C 829.398,238.187 835.565,241.353 842.5,243C 861.597,244.95 879.597,250.283 896.5,259C 910.912,272.414 915.745,288.914 911,308.5C 905.25,328.253 892.416,340.419 872.5,345C 843.299,349.097 814.965,346.097 787.5,336C 786.18,324.229 786.18,312.395 787.5,300.5C 809.127,312.943 832.461,317.776 857.5,315C 869.047,311.749 873.213,304.249 870,292.5C 866.09,287.19 860.923,283.69 854.5,282C 836.779,279.436 819.779,274.436 803.5,267C 795.722,262.002 790.222,255.169 787,246.5C 778.773,208.288 793.94,185.955 832.5,179.5 Z"/></g>
<g><path style="opacity:0.998" fill="#000000" d="M 163.5,181.5 C 194.192,181.082 224.858,181.582 255.5,183C 282.367,189.524 296.367,206.69 297.5,234.5C 294.019,267.48 275.685,284.98 242.5,287C 230.128,287.457 217.962,287.623 206,287.5C 205.5,305.83 205.333,324.164 205.5,342.5C 191.588,342.823 177.754,342.49 164,341.5C 163.5,288.168 163.333,234.834 163.5,181.5 Z M 206.5,213.5 C 215.5,213.5 224.5,213.5 233.5,213.5C 238.123,214.307 242.456,215.974 246.5,218.5C 248.187,221.024 249.52,223.69 250.5,226.5C 250.5,227.833 251.167,228.5 252.5,228.5C 252.5,232.167 252.5,235.833 252.5,239.5C 251.167,239.5 250.5,240.167 250.5,241.5C 249.706,243.873 248.706,246.206 247.5,248.5C 244.187,250.264 241.187,252.264 238.5,254.5C 227.833,254.5 217.167,254.5 206.5,254.5C 206.5,240.833 206.5,227.167 206.5,213.5 Z"/></g>
<g><path style="opacity:1" fill="#000000" d="M 637.5,181.5 C 675.167,181.5 712.833,181.5 750.5,181.5C 750.5,191.833 750.5,202.167 750.5,212.5C 726.925,212.173 703.425,212.506 680,213.5C 679.182,223.411 679.349,233.244 680.5,243C 702.164,243.5 723.831,243.667 745.5,243.5C 745.5,253.833 745.5,264.167 745.5,274.5C 723.831,274.333 702.164,274.5 680.5,275C 679.346,287.091 679.179,299.258 680,311.5C 704.092,312.494 728.259,312.828 752.5,312.5C 752.5,322.833 752.5,333.167 752.5,343.5C 714.167,343.5 675.833,343.5 637.5,343.5C 637.5,289.5 637.5,235.5 637.5,181.5 Z"/></g>
<g><path style="opacity:0.997" fill="#000000" d="M 345.5,182.5 C 361.837,182.333 378.17,182.5 394.5,183C 395.333,183.833 396.167,184.667 397,185.5C 415.17,237.627 434.337,289.461 454.5,341C 454.355,341.772 454.022,342.439 453.5,343C 439.833,343.667 426.167,343.667 412.5,343C 409.563,333.483 406.563,323.983 403.5,314.5C 381.831,314.333 360.164,314.5 338.5,315C 335.284,324.548 331.618,333.882 327.5,343C 313.837,343.5 300.171,343.667 286.5,343.5C 305.761,289.3 325.427,235.633 345.5,182.5 Z M 385.5,267.5 C 385.263,268.791 385.596,269.791 386.5,270.5C 387.672,274.845 389.005,279.179 390.5,283.5C 376.829,283.667 363.163,283.5 349.5,283C 352.911,273.805 356.578,264.639 360.5,255.5C 360.291,254.914 359.957,254.414 359.5,254C 361.074,252.174 361.907,250.007 362,247.5C 362.333,247.833 362.667,248.167 363,248.5C 364.844,243.309 366.011,237.975 366.5,232.5C 368.256,231.448 368.923,229.781 368.5,227.5C 370.045,226.77 370.878,225.437 371,223.5C 374.667,235.833 378.333,248.167 382,260.5C 382.333,260.167 382.667,259.833 383,259.5C 383.35,262.38 384.183,265.047 385.5,267.5 Z"/></g>
<g><path style="opacity:0.945" fill="#020202" d="M 1199.5,259.5 C 1199.5,282.833 1199.5,306.167 1199.5,329.5C 1193.8,354.525 1178.14,368.192 1152.5,370.5C 1140.83,370.5 1129.17,370.5 1117.5,370.5C 1106.96,369.708 1097.3,366.208 1088.5,360C 1081,351.833 1073.5,343.667 1066,335.5C 1059.26,326.217 1057.93,316.217 1062,305.5C 1066.93,297.299 1072.6,289.632 1079,282.5C 1079.33,259.833 1079.67,237.167 1080,214.5C 1083.47,201.377 1091.97,195.877 1105.5,198C 1112,200.5 1116.5,205 1119,211.5C 1119.04,218.336 1119.71,225.003 1121,231.5C 1130.16,229.499 1137.66,232.166 1143.5,239.5C 1148.31,237.515 1153.31,237.015 1158.5,238C 1162.9,239.912 1166.9,242.412 1170.5,245.5C 1184.51,241.338 1194.17,246.005 1199.5,259.5 Z M 1098.5,211.5 C 1100.9,211.393 1102.74,212.393 1104,214.5C 1104.17,233.407 1104.67,252.24 1105.5,271C 1110.05,272.545 1114.71,272.879 1119.5,272C 1120,271.5 1120.5,271 1121,270.5C 1121.33,262.833 1121.67,255.167 1122,247.5C 1125.34,244.701 1128.34,245.034 1131,248.5C 1131.33,255.833 1131.67,263.167 1132,270.5C 1132.5,271 1133,271.5 1133.5,272C 1137.89,272.772 1142.22,272.606 1146.5,271.5C 1147.33,265.862 1147.83,260.196 1148,254.5C 1150.76,252.297 1153.76,251.964 1157,253.5C 1157.77,259.85 1158.94,266.016 1160.5,272C 1164.56,272.767 1168.56,272.6 1172.5,271.5C 1173.32,268.215 1173.82,264.882 1174,261.5C 1177.33,257.5 1180.67,257.5 1184,261.5C 1184.67,284.167 1184.67,306.833 1184,329.5C 1181.47,341.695 1174.31,349.862 1162.5,354C 1145.88,355.592 1129.21,355.925 1112.5,355C 1107.35,354.09 1102.68,352.09 1098.5,349C 1091.33,341.167 1084.17,333.333 1077,325.5C 1073.52,319.251 1073.85,313.251 1078,307.5C 1078.49,308.793 1078.66,310.127 1078.5,311.5C 1083.83,311.5 1089.17,311.5 1094.5,311.5C 1094.33,279.832 1094.5,248.165 1095,216.5C 1095.26,214.093 1096.42,212.427 1098.5,211.5 Z"/></g>
<g><path style="opacity:0.055" fill="#27452a" d="M 233.5,213.5 C 224.5,213.5 215.5,213.5 206.5,213.5C 205.262,213.19 205.262,212.69 206.5,212C 210.167,211.833 213.833,211.667 217.5,211.5C 223.086,211.318 228.42,211.985 233.5,213.5 Z"/></g>
<g><path style="opacity:0.055" fill="#3d5a40" d="M 250.5,226.5 C 251.833,226.5 252.5,227.167 252.5,228.5C 252.5,227.167 251.833,226.5 250.5,226.5 Z"/></g>
<g><path style="opacity:0.941" fill="#6f736f" d="M 368.5,227.5 C 368.923,229.781 368.256,231.448 366.5,232.5C 367.024,230.694 367.691,229.028 368.5,227.5 Z"/></g>
<g><path style="opacity:0.078" fill="#344f37" d="M 252.5,239.5 C 252.5,240.833 251.833,241.5 250.5,241.5C 250.5,240.167 251.167,239.5 252.5,239.5 Z"/></g>
<g><path style="opacity:0.2" fill="#2a472d" d="M 206.5,254.5 C 217.167,254.5 227.833,254.5 238.5,254.5C 228.049,256.397 217.382,256.897 206.5,256C 205.262,255.31 205.262,254.81 206.5,254.5 Z"/></g>
<g><path style="opacity:0.122" fill="#365139" d="M 385.5,267.5 C 386.267,268.172 386.934,269.005 387.5,270C 387.272,270.399 386.938,270.565 386.5,270.5C 385.596,269.791 385.263,268.791 385.5,267.5 Z"/></g>
</svg>
